<svg version="1.0" xmlns="http://www.w3.org/2000/svg" width="800.000000" height="800.000000" viewBox="0 0 800.000000 800.000000" preserveAspectRatio="xMidYMid meet">
  <metadata>
    <rdf:RDF xmlns:rdf="http://www.w3.org/1999/02/22-rdf-syntax-ns#" xmlns:rdfs="http://www.w3.org/2000/01/rdf-schema#" xmlns:dc="http://purl.org/dc/elements/1.1/">
      <rdf:Description dc:format="image/svg+xml" dc:Label="1" dc:ContentProducer="001191330110MACRLGPT8B00000" dc:ProduceID="448343506" dc:ReservedCode1="Q1xKI1T/Uj/Rp+3FdMZhh7wVt+If9Sux/ShSlifbvDI=" dc:ContentPropagator="001191330110MACRLGPT8B00000" dc:PropagateID="448343506" dc:ReservedCode2="Q1xKI1T/Uj/Rp+3FdMZhh7wVt+If9Sux/ShSlifbvDI="/>
    </rdf:RDF>
  </metadata>
  <g transform="translate(-57.440954,872.683550) scale(0.121784,-0.121784)" fill="#000000" stroke="none">
    <path d="M4157 5603 c-59 -2 -448 -10 -865 -17 -821 -15 -814 -14 -942 -74 -78 -36 -178 -139 -219 -225 -84 -180 -92 -377 -71 -1697 12 -713 23 -966 45 -1058 45 -189 168 -310 362 -359 61 -16 132 -17 713 -15 909 3 1765 20 1868 37 206 34 345 159 388 352 22 97 32 666 23 1253 -13 802 -29 1274 -45 1369 -34 200 -154 344 -345 413 -62 22 -74 23 -434 24 -203 0 -419 -1 -478 -3z m790 -123 c126 -16 235 -87 296 -191 49 -84 57 -141 67 -484 5 -176 12 -431 16 -566 l7 -246 -59 -12 c-32 -7 -121 -15 -196 -18 -173 -7 -177 -6 -202 103 -38 162 -83 236 -170 279 -94 47 -184 31 -306 -53 l-64 -44 -71 35 c-38 19 -194 109 -345 199 -151 90 -316 188 -366 216 -110 63 -118 71 -110 116 11 56 39 81 143 125 143 61 163 72 189 106 34 45 43 103 44 273 l0 152 113 1 c61 1 213 5 337 8 348 11 598 11 677 1z m-1257 -154 c0 -79 -3 -157 -6 -173 -7 -36 -31 -51 -143 -92 -79 -29 -140 -66 -168 -101 -24 -29 -63 -119 -63 -143 0 -30 -16 -37 -84 -37 -105 0 -220 -89 -251 -194 -28 -92 -38 -237 -37 -526 1 -157 -1 -340 -4 -407 l-6 -123 -34 0 c-48 0 -120 37 -151 77 -14 18 -39 77 -54 129 -39 131 -48 146 -99 172 -42 22 -53 23 -170 18 -69 -3 -150 -9 -181 -12 l-56 -6 -6 128 c-19 365 0 968 33 1101 30 117 104 214 199 263 99 50 136 52 1179 68 l102 2 0 -144z m-226 -731 c48 -30 90 -55 94 -55 4 0 18 -10 32 -21 20 -17 21 -20 5 -14 -11 4 -29 9 -40 12 l-20 4 20 -17 20 -17 -20 8 c-11 4 -38 13 -60 19 -22 6 -42 13 -45 17 -9 11 -55 18 -79 12 -18 -5 -21 -10 -16 -30 5 -22 4 -23 -15 -13 -22 12 -44 5 -35 -11 9 -13 -9 -11 -24 4 -10 10 -17 7 -35 -15 -26 -34 -34 -35 -29 -5 4 27 -12 56 -25 42 -5 -6 -16 -28 -23 -50 l-14 -40 -3 48 c-2 36 3 62 20 95 29 58 72 82 149 82 50 0 64 -5 143 -55z m1166 -355 c20 0 74 -57 90 -94 9 -23 25 -77 34 -121 20 -91 52 -147 98 -172 28 -15 57 -18 188 -17 85 1 184 7 219 13 34 7 66 9 70 6 3 -4 7 -167 9 -363 4 -389 -11 -859 -28 -935 -24 -98 -113 -192 -213 -222 -97 -29 -191 -34 -748 -41 l-556 -7 -7 74 c-9 93 8 283 29 336 14 36 24 43 133 95 88 42 131 69 174 111 80 76 101 128 96 232 -5 92 -37 168 -101 241 -21 24 -36 48 -33 53 3 4 76 52 162 106 251 157 332 248 342 386 6 85 -21 158 -79 215 -21 21 -39 41 -39 45 0 20 112 71 138 63 8 -2 17 -4 22 -4z m-420 -94 c131 -47 161 -61 200 -96 48 -41 65 -93 49 -152 -12 -46 -85 -128 -161 -179 -67 -46 -286 -154 -294 -146 -11 10 93 83 192 135 100 52 174 105 174 123 0 5 -18 0 -40 -11 -42 -22 -104 -30 -65 -9 11 6 37 23 58 37 30 20 35 27 25 39 -9 11 -9 16 1 22 14 9 -28 41 -54 41 -32 0 -13 19 23 22 44 4 50 26 12 45 l-25 13 30 0 c25 0 27 2 15 14 -13 12 -140 78 -220 114 -49 21 11 12 80 -12z m-1674 -349 c3 -3 15 -41 26 -84 41 -162 117 -256 236 -293 35 -11 81 -20 101 -20 l37 0 12 -60 c23 -127 92 -230 186 -277 39 -20 70 -26 146 -30 144 -8 187 9 483 199 105 67 193 118 201 115 21 -8 94 -104 112 -145 38 -91 6 -179 -85 -242 -33 -22 -63 -40 -66 -40 -3 0 -44 -18 -89 -40 -71 -33 -88 -47 -114 -87 -43 -67 -62 -179 -62 -358 l0 -143 -517 -7 c-533 -7 -638 -3 -718 30 -93 39 -170 135 -200 250 -15 59 -17 102 -40 988 l-5 217 26 11 c54 20 313 33 330 16z m585 -419 c2 -2 14 -11 25 -21 21 -17 21 -17 17 10 -3 24 -2 23 9 -7 15 -40 69 -80 108 -80 14 0 48 14 74 31 31 19 54 28 65 23 22 -10 34 -7 120 27 80 32 117 34 63 3 -62 -35 -123 -76 -119 -81 3 -2 45 16 93 41 105 52 194 87 194 76 0 -5 -35 -30 -77 -56 -312 -191 -311 -191 -410 -181 -139 14 -226 151 -192 302 l13 60 6 -72 c4 -40 8 -74 11 -75z"/>
    <path d="M4900 5305 c0 -15 -7 -33 -15 -42 -18 -18 -15 -38 6 -38 8 0 17 -9 21 -20 3 -11 6 10 7 47 1 37 -3 70 -9 73 -6 4 -10 -5 -10 -20z"/>
    <path d="M5067 5248 c-14 -11 -18 -24 -15 -58 l3 -44 18 27 c10 16 17 41 15 58 -3 27 -5 29 -21 17z"/>
    <path d="M2410 5317 c-17 -8 -25 -21 -25 -37 0 -51 101 -62 265 -30 56 11 121 20 146 20 82 0 45 15 -94 38 -152 25 -254 28 -292 9z"/>
    <path d="M2333 5198 c-22 -11 -28 -25 -24 -58 4 -28 42 -50 143 -81 56 -17 107 -33 115 -36 28 -11 11 21 -44 78 -84 89 -144 119 -190 97z"/>
    <path d="M5230 2752 c-26 -12 -78 -18 -204 -22 l-170 -5 108 -53 c60 -29 107 -55 104 -57 -2 -2 -46 -9 -98 -15 -89 -11 -438 -93 -469 -110 -8 -4 57 -11 145 -15 183 -8 326 -25 331 -40 2 -6 -35 -21 -81 -34 -128 -36 -126 -43 9 -36 244 12 318 67 360 266 16 76 20 139 8 138 -5 0 -24 -8 -43 -17z"/>
    <path d="M4358 3953 c7 -3 16 -2 19 1 4 3 -2 6 -13 5 -11 0 -14 -3 -6 -6z"/>
    <path d="M2437 2673 c-13 -21 -78 -46 -90 -34 -6 6 -17 11 -24 11 -20 0 -6 -112 19 -167 24 -51 48 -68 111 -77 47 -7 197 10 197 23 -1 25 -20 32 -70 25 -52 -7 -52 -7 -45 17 9 30 47 104 76 147 28 42 16 42 -97 -2 -49 -19 -92 -32 -97 -29 -4 2 2 20 14 39 11 19 19 39 17 46 -3 8 -6 9 -11 1z"/>
  </g>
</svg>