<svg version="1.0" xmlns="http://www.w3.org/2000/svg" width="800.000000" height="800.000000" viewBox="0 0 800.000000 800.000000" preserveAspectRatio="xMidYMid meet">
  <metadata>
    <rdf:RDF xmlns:rdf="http://www.w3.org/1999/02/22-rdf-syntax-ns#" xmlns:rdfs="http://www.w3.org/2000/01/rdf-schema#" xmlns:dc="http://purl.org/dc/elements/1.1/">
      <rdf:Description dc:format="image/svg+xml" dc:Label="1" dc:ContentProducer="001191330110MACRLGPT8B00000" dc:ProduceID="448328422" dc:ReservedCode1="3TjvKmoqCO+Xpk79p0dxPQR6MpUkE6/ZbtEr26IZizM=" dc:ContentPropagator="001191330110MACRLGPT8B00000" dc:PropagateID="448328422" dc:ReservedCode2="3TjvKmoqCO+Xpk79p0dxPQR6MpUkE6/ZbtEr26IZizM="/>
    </rdf:RDF>
  </metadata>
  <g transform="translate(-286.558264,825.650363) scale(0.151535,-0.151535)" fill="#000000" stroke="none">
    <path d="M5135 4193 c-30 -8 -94 -55 -155 -114 -65 -64 -137 -152 -250 -309 -45 -63 -90 -121 -98 -127 -11 -9 -56 -13 -142 -13 l-125 0 -67 45 c-181 121 -529 315 -566 315 -31 0 -100 -57 -122 -99 -44 -87 -14 -177 82 -248 l30 -21 -59 -7 c-149 -16 -230 -48 -311 -120 -122 -109 -149 -259 -159 -855 -6 -386 3 -599 33 -768 29 -165 112 -271 238 -303 34 -8 54 -22 87 -61 96 -114 202 -111 310 9 20 22 42 44 49 48 13 8 1227 26 1247 18 7 -3 24 -24 37 -48 90 -152 243 -149 358 9 21 30 41 44 85 58 112 38 178 101 213 203 19 56 20 84 20 784 0 613 -3 736 -15 790 -31 132 -102 208 -226 246 -44 13 -103 16 -316 16 -145 0 -263 3 -263 6 0 3 27 41 60 84 107 143 170 265 170 333 0 73 -81 144 -145 129z m-56 -237 c-11 -20 -25 -36 -30 -36 -4 0 -19 -11 -33 -25 -14 -14 -31 -25 -38 -25 -7 1 2 13 19 29 25 20 30 30 21 39 -8 8 -8 15 2 27 15 18 37 20 43 3 2 -8 9 -5 17 9 23 37 22 18 -1 -21z m-1186 -246 c80 -27 89 -45 18 -37 -53 6 -142 46 -178 80 -38 34 -26 37 35 7 31 -15 87 -38 125 -50z m1749 -213 c84 -49 115 -106 87 -158 -10 -19 -12 -18 -38 23 -54 84 -197 134 -355 125 -48 -3 -87 -4 -84 -2 2 2 37 13 78 24 111 31 248 26 312 -12z m-2117 -82 c-16 -14 -47 -37 -67 -51 -43 -30 -75 -92 -91 -178 l-12 -61 -3 77 c-3 82 20 158 57 192 22 20 88 44 121 45 l25 1 -30 -25z m1129 -305 c91 -15 175 -59 248 -131 112 -111 151 -229 129 -392 -14 -106 -43 -183 -106 -276 -61 -93 -138 -161 -238 -211 -72 -37 -88 -41 -132 -37 -67 7 -221 74 -293 128 -83 63 -153 137 -185 196 -32 59 -57 164 -57 238 0 160 112 359 237 424 121 61 263 83 397 61z m1049 -1283 c-26 -44 -98 -90 -167 -107 -79 -19 -167 -4 -229 39 -25 17 -52 31 -59 31 -10 0 -10 2 1 9 8 5 34 3 65 -5 68 -18 90 -18 82 1 -8 21 17 19 61 -5 42 -22 84 -19 143 10 47 24 75 56 97 110 l18 45 3 -48 c2 -33 -3 -58 -15 -80z m-2248 46 c13 -71 100 -122 182 -107 20 4 53 22 73 40 45 41 53 42 39 8 -5 -15 -7 -29 -5 -32 3 -2 28 5 55 17 49 21 105 26 149 15 21 -6 18 -10 -30 -45 -102 -76 -127 -84 -278 -84 -149 0 -194 13 -233 66 -28 39 -34 114 -12 139 29 32 52 25 60 -17z"/>
    <path d="M4690 3003 c0 -5 35 -30 77 -58 48 -31 89 -68 112 -99 19 -27 37 -44 38 -39 8 22 -39 123 -68 147 -40 34 -159 70 -159 49z"/>
    <path d="M4345 2946 c-41 -18 -73 -56 -86 -97 -5 -19 -14 -94 -19 -168 -22 -294 26 -411 169 -411 33 0 73 8 97 19 57 26 258 147 294 178 63 53 88 149 56 212 -21 39 -69 79 -173 144 -193 119 -279 150 -338 123z m187 -169 c113 -66 210 -132 221 -153 24 -42 -69 -122 -243 -211 -77 -39 -107 -42 -120 -10 -29 69 -42 378 -17 418 17 29 46 20 159 -44z"/>
    <path d="M4174 2892 c-20 -12 -53 -85 -60 -131 -9 -57 3 -49 43 31 48 95 52 123 17 100z"/>
    <path d="M4874 2394 c-43 -72 -47 -75 -195 -145 -19 -9 -58 -29 -87 -45 l-53 -29 31 -3 c19 -2 61 9 104 27 39 16 82 32 96 35 52 11 88 44 120 109 19 39 30 76 28 93 -3 25 -6 22 -44 -42z"/>
  </g>
</svg>