<svg version="1.0" xmlns="http://www.w3.org/2000/svg" width="800.000000" height="800.000000" viewBox="0 0 800.000000 800.000000" preserveAspectRatio="xMidYMid meet">
  <metadata>
    <rdf:RDF xmlns:rdf="http://www.w3.org/1999/02/22-rdf-syntax-ns#" xmlns:rdfs="http://www.w3.org/2000/01/rdf-schema#" xmlns:dc="http://purl.org/dc/elements/1.1/">
      <rdf:Description dc:format="image/svg+xml" dc:Label="1" dc:ContentProducer="001191330110MACRLGPT8B00000" dc:ProduceID="448343511" dc:ReservedCode1="2dykN3fIDqr6EQE8ZxweRf0PyV8x/zvee1GxkjhyT00=" dc:ContentPropagator="001191330110MACRLGPT8B00000" dc:PropagateID="448343511" dc:ReservedCode2="2dykN3fIDqr6EQE8ZxweRf0PyV8x/zvee1GxkjhyT00="/>
    </rdf:RDF>
  </metadata>
  <g transform="translate(-3.261874,784.068102) scale(0.100968,-0.100968)" fill="#000000" stroke="none">
    <path d="M3770 5543 c-127 -8 -523 -45 -625 -59 -282 -39 -410 -100 -507 -244 -25 -36 -143 -297 -193 -425 -15 -38 -36 -89 -46 -112 -11 -23 -19 -44 -19 -47 0 -3 -18 -44 -40 -91 l-40 -86 -40 34 c-104 89 -272 69 -326 -40 -28 -57 -26 -163 5 -227 36 -73 87 -120 159 -146 34 -12 62 -25 62 -29 0 -3 -5 -22 -10 -41 -33 -114 -106 -674 -122 -937 -20 -326 15 -580 107 -770 50 -102 134 -202 197 -234 101 -52 214 -26 308 70 60 61 87 104 139 224 19 43 43 83 55 90 27 15 383 23 1463 33 679 6 845 5 857 -6 9 -7 25 -41 35 -75 67 -217 201 -351 363 -363 130 -10 246 92 317 278 106 276 119 655 46 1316 -25 218 -46 362 -60 396 -5 13 2 21 32 35 103 47 163 129 182 252 18 110 -15 183 -96 217 -67 29 -164 6 -234 -54 -22 -19 -42 -32 -44 -30 -24 23 -157 326 -230 519 -54 144 -115 267 -155 313 -69 79 -183 134 -328 161 -283 51 -945 94 -1212 78z m1168 -198 c63 -13 139 -36 170 -51 105 -51 194 -165 242 -311 l19 -58 -22 30 c-54 73 -158 153 -297 227 -36 19 -104 56 -151 81 -47 26 -124 60 -170 77 -46 17 -86 34 -89 37 -11 11 190 -10 298 -32z m-1694 12 l39 -12 -69 -26 c-102 -37 -170 -59 -187 -59 -8 0 -28 7 -43 15 -16 8 -44 15 -61 15 -54 0 -38 14 55 47 96 34 194 41 266 20z m-296 -113 c29 -20 28 -42 -2 -55 -31 -14 -70 -5 -98 23 -20 20 -20 22 -3 35 25 18 75 17 103 -3z m182 -23 c0 -5 -7 -14 -15 -21 -18 -15 -42 1 -31 19 8 13 46 15 46 2z m1465 -220 c121 -12 238 -26 260 -31 96 -22 171 -72 204 -139 41 -81 137 -466 147 -592 8 -87 -1 -111 -48 -135 -29 -15 -75 -16 -468 -10 -239 3 -552 9 -695 12 -150 4 -383 2 -550 -5 -469 -19 -594 -19 -632 1 -17 10 -35 27 -38 39 -20 63 84 587 137 694 21 41 74 86 125 105 67 25 130 35 378 60 110 11 218 22 240 24 22 2 193 3 380 1 255 -2 395 -8 560 -24z m1334 -547 c34 -28 33 -51 -1 -33 -30 16 -81 5 -132 -30 -50 -35 -56 -37 -56 -17 0 24 42 68 84 87 54 25 69 24 105 -7z m-3741 -27 c43 -42 42 -57 -8 -57 -32 0 -46 7 -75 35 -42 43 -44 53 -7 57 38 5 52 -1 90 -35z m3736 -203 c46 -18 -7 -61 -79 -65 -59 -4 -68 10 -29 46 26 25 72 33 108 19z m-2837 -533 c55 -26 76 -67 77 -151 1 -73 -18 -114 -59 -130 -35 -13 -593 -14 -627 -1 -47 18 -61 52 -56 134 5 76 23 118 62 140 19 11 130 17 481 25 60 1 90 -3 122 -17z m2402 5 c54 -19 75 -55 79 -135 5 -79 -14 -131 -54 -150 -17 -7 -119 -11 -312 -11 -267 0 -289 1 -319 20 -45 27 -60 80 -44 156 14 71 33 101 74 119 43 19 525 20 576 1z m-3315 -783 c53 -435 48 -423 214 -558 75 -61 80 -80 20 -71 -69 11 -146 53 -179 99 -59 81 -99 262 -99 445 0 119 10 233 20 227 4 -3 15 -67 24 -142z m781 -243 c136 -35 234 -48 410 -57 l170 -8 -185 -6 c-102 -3 -248 -3 -325 1 -173 7 -232 29 -289 107 -20 26 -36 53 -36 59 0 5 39 -9 88 -33 48 -24 123 -52 167 -63z m2819 -272 c-26 -85 -84 -164 -138 -189 -77 -35 -179 -15 -237 47 l-20 22 45 -5 c73 -9 160 21 256 87 47 32 89 59 93 59 5 1 5 -9 1 -21z m-3339 -147 c71 -6 87 -20 38 -33 -26 -7 -101 6 -135 24 -26 13 -22 31 5 22 12 -4 54 -10 92 -13z"/>
    <path d="M3154 4870 c-28 -4 -60 -12 -71 -18 -44 -24 -113 -123 -113 -163 0 -6 16 3 35 20 20 17 83 59 141 92 57 34 107 65 110 70 6 10 -28 10 -102 -1z"/>
    <path d="M5848 4173 c6 -2 18 -2 25 0 6 3 1 5 -13 5 -14 0 -19 -2 -12 -5z"/>
    <path d="M2521 3623 c-42 -39 -51 -93 -21 -123 26 -26 40 -14 40 31 0 14 10 41 23 60 40 60 40 59 13 59 -14 0 -39 -12 -55 -27z"/>
    <path d="M5280 3685 c7 -8 25 -15 41 -15 19 0 29 5 29 15 0 11 -11 15 -41 15 -36 0 -40 -2 -29 -15z"/>
    <path d="M5020 3680 c-11 -7 2 -10 43 -10 31 0 57 4 57 10 0 13 -80 13 -100 0z"/>
    <path d="M5450 3635 c0 -12 33 -55 41 -55 13 0 11 34 -3 48 -12 12 -38 17 -38 7z"/>
    <path d="M5420 3467 c-33 -21 -34 -22 -12 -25 23 -3 62 22 62 40 0 12 -11 9 -50 -15z"/>
  </g>
</svg>