<svg version="1.0" xmlns="http://www.w3.org/2000/svg" width="800.000000" height="800.000000" viewBox="0 0 800.000000 800.000000" preserveAspectRatio="xMidYMid meet">
  <metadata>
    <rdf:RDF xmlns:rdf="http://www.w3.org/1999/02/22-rdf-syntax-ns#" xmlns:rdfs="http://www.w3.org/2000/01/rdf-schema#" xmlns:dc="http://purl.org/dc/elements/1.1/">
      <rdf:Description dc:format="image/svg+xml" dc:Label="1" dc:ContentProducer="001191330110MACRLGPT8B00000" dc:ProduceID="448343971" dc:ReservedCode1="e71+A/B7QOGeAAtwAnv6KfrCz50jgLljHjxUTwlNOwA=" dc:ContentPropagator="001191330110MACRLGPT8B00000" dc:PropagateID="448343971" dc:ReservedCode2="e71+A/B7QOGeAAtwAnv6KfrCz50jgLljHjxUTwlNOwA="/>
    </rdf:RDF>
  </metadata>
  <g transform="translate(-78.921869,855.990492) scale(0.110581,-0.110581)" fill="#000000" stroke="none">
    <path d="M3269 6013 c-129 -38 -219 -210 -219 -418 1 -194 47 -299 388 -870 287 -480 433 -712 529 -837 23 -31 43 -61 43 -67 0 -11 -89 -141 -96 -141 -3 0 -27 11 -53 25 -92 46 -186 67 -331 72 -165 6 -251 -10 -365 -66 -101 -51 -179 -112 -250 -198 -67 -81 -97 -133 -130 -224 -72 -201 -51 -444 56 -650 83 -159 226 -275 404 -327 362 -105 532 -77 730 122 98 99 159 200 208 346 53 157 60 346 18 500 -11 41 -21 80 -21 87 0 6 16 30 36 54 19 23 42 52 50 63 14 20 15 20 46 -19 18 -22 52 -61 76 -87 l43 -47 -17 -102 c-32 -191 -7 -399 66 -554 96 -207 267 -344 525 -421 116 -35 294 -39 390 -10 119 36 214 94 305 186 98 98 144 176 185 315 38 131 45 321 16 460 -46 223 -166 382 -363 478 -151 74 -222 92 -368 92 -114 0 -134 -3 -230 -34 -58 -18 -127 -44 -153 -58 -27 -13 -51 -23 -53 -20 -14 13 -124 173 -124 180 0 4 26 46 58 95 97 144 193 297 304 482 96 160 167 271 345 542 84 129 167 291 199 392 35 109 44 273 19 365 -53 203 -199 322 -328 267 -123 -52 -216 -185 -587 -836 -104 -183 -240 -401 -279 -449 l-28 -34 -87 123 c-48 67 -123 181 -168 254 -44 72 -95 154 -113 181 -112 176 -290 461 -346 553 -83 137 -124 188 -174 217 -52 29 -99 35 -156 18z m115 -145 c31 -30 258 -384 533 -833 58 -94 150 -234 204 -310 100 -140 239 -357 278 -434 l21 -41 -32 20 c-119 72 -305 -66 -285 -212 7 -49 63 -137 112 -174 51 -39 128 -45 182 -14 49 27 115 103 150 172 22 42 28 67 28 123 0 75 -1 77 -144 322 l-42 72 69 98 c110 157 114 163 387 638 176 306 262 436 339 519 42 45 58 56 83 56 93 0 174 -171 159 -337 -14 -157 -89 -320 -279 -606 -121 -184 -224 -346 -282 -447 -122 -210 -283 -457 -383 -589 -81 -107 -171 -211 -182 -211 -5 0 -35 32 -67 71 -32 40 -78 95 -102 123 -76 90 -302 441 -549 853 -321 536 -365 619 -398 753 -36 146 3 324 86 394 42 35 73 33 114 -6z m987 -1688 c29 -16 23 -30 -14 -30 -22 0 -49 -11 -75 -30 -70 -50 -79 -90 -32 -135 36 -34 32 -43 -8 -20 -28 17 -54 57 -67 103 -8 28 27 87 63 107 32 17 105 19 133 5z m196 -492 c21 -29 42 -59 47 -67 6 -10 -5 -27 -40 -60 -27 -25 -59 -59 -71 -74 -12 -16 -26 -26 -31 -23 -5 3 -28 30 -52 60 l-42 56 66 72 c36 40 66 76 66 80 0 20 21 3 57 -44z m-431 -10 c74 -81 72 -71 24 -133 l-42 -54 -44 59 c-24 33 -44 63 -44 66 0 10 61 94 69 94 4 0 20 -15 37 -32z m-731 -107 c-3 -5 -18 -12 -35 -16 -72 -16 -294 -172 -284 -200 3 -8 -20 -62 -52 -122 -52 -96 -59 -116 -64 -182 -6 -81 -23 -107 -57 -85 -15 10 -18 27 -18 120 1 175 46 291 145 367 94 73 228 124 328 126 24 1 41 -3 37 -8z m1454 -93 c24 -80 15 -103 -36 -95 -20 4 -43 13 -53 22 -9 8 -27 15 -39 15 -20 0 -22 4 -17 28 9 36 69 92 100 92 22 0 28 -8 45 -62z m911 -697 c-30 -137 -154 -297 -277 -359 -49 -25 -188 -72 -213 -72 -2 0 31 21 75 46 185 108 283 209 381 392 43 80 53 78 34 -7z m-2010 -358 c-90 -43 -170 -51 -305 -30 l-90 13 54 12 c35 8 90 10 150 7 78 -5 108 -3 161 13 100 30 113 24 30 -15z"/>
    <path d="M3275 5786 c-8 -13 -22 -54 -30 -92 -16 -74 -20 -244 -7 -244 5 0 14 18 21 41 7 23 15 38 18 35 4 -3 18 -43 33 -88 29 -89 97 -244 104 -237 3 2 -4 36 -15 74 -43 152 -59 249 -59 368 0 97 -3 117 -15 117 -9 0 -15 9 -15 25 0 31 -15 32 -35 1z"/>
    <path d="M5230 5735 c-29 -35 4 -62 78 -64 26 -1 32 3 32 19 0 47 -80 81 -110 45z"/>
    <path d="M5284 5428 c-15 -46 -36 -101 -47 -123 l-21 -40 -10 52 c-15 71 -22 73 -29 10 -7 -67 -57 -220 -101 -309 -19 -38 -30 -68 -25 -68 19 0 164 179 189 235 39 85 96 325 77 325 -3 0 -18 -37 -33 -82z"/>
    <path d="M4810 4593 c-32 -37 -73 -118 -68 -135 4 -10 93 122 103 151 9 29 4 27 -35 -16z"/>
  </g>
</svg>