<svg version="1.0" xmlns="http://www.w3.org/2000/svg" width="800.000000" height="800.000000" viewBox="0 0 800.000000 800.000000" preserveAspectRatio="xMidYMid meet">
  <metadata>
    <rdf:RDF xmlns:rdf="http://www.w3.org/1999/02/22-rdf-syntax-ns#" xmlns:rdfs="http://www.w3.org/2000/01/rdf-schema#" xmlns:dc="http://purl.org/dc/elements/1.1/">
      <rdf:Description dc:format="image/svg+xml" dc:Label="1" dc:ContentProducer="001191330110MACRLGPT8B00000" dc:ProduceID="448333133" dc:ReservedCode1="ZzPeTg51uGRw/yxqTknTVs4UnA4PSgXquf2htrBeYZc=" dc:ContentPropagator="001191330110MACRLGPT8B00000" dc:PropagateID="448333133" dc:ReservedCode2="ZzPeTg51uGRw/yxqTknTVs4UnA4PSgXquf2htrBeYZc="/>
    </rdf:RDF>
  </metadata>
  <g transform="translate(-24.393317,768.911045) scale(0.093634,-0.093634)" fill="#000000" stroke="none">
    <path d="M4300 5495 c-195 -24 -391 -73 -597 -150 -422 -158 -867 -473 -1109 -785 -221 -285 -350 -611 -289 -730 22 -42 62 -69 225 -152 237 -122 416 -200 805 -352 169 -66 598 -281 683 -343 24 -18 48 -33 53 -35 7 -2 6 -14 -2 -33 -22 -58 -27 -97 -19 -156 31 -218 248 -389 493 -389 139 1 282 69 350 168 83 119 118 295 76 373 -15 30 76 99 210 160 64 28 159 72 211 97 138 65 542 253 640 298 129 59 455 224 550 279 222 129 245 223 118 494 -238 511 -928 1040 -1564 1200 -269 67 -573 88 -834 56z m617 -134 c295 -50 529 -138 812 -307 454 -269 817 -668 905 -993 21 -74 15 -119 -17 -148 -54 -49 -313 -186 -652 -346 -311 -146 -335 -157 -344 -157 -5 0 -34 51 -64 113 -61 123 -108 192 -195 281 -133 138 -348 263 -537 312 -79 21 -132 27 -257 31 -187 7 -283 -5 -428 -53 -230 -76 -405 -193 -543 -361 -33 -40 -64 -73 -69 -73 -6 0 -121 62 -256 137 -136 75 -363 195 -504 266 -142 71 -258 135 -258 141 0 7 25 52 54 100 176 279 397 496 701 687 362 227 744 358 1145 393 109 9 389 -3 507 -23z m-2402 -1322 c4 -6 -2 -20 -13 -32 -36 -40 -45 -67 -32 -93 25 -47 70 -36 70 16 0 47 12 90 25 90 7 0 22 -8 34 -17 l21 -18 -25 -68 -25 -67 53 0 c28 0 102 0 162 0 83 1 115 -3 130 -14 19 -15 18 -15 -21 -16 -22 0 -64 -7 -93 -16 -29 -8 -78 -19 -108 -24 -52 -9 -59 -7 -117 24 -101 55 -134 76 -139 90 -6 15 11 114 24 138 11 20 44 24 54 7z m1895 -27 c0 -10 -9 -58 -20 -108 -12 -56 -20 -127 -20 -192 0 -109 -15 -192 -34 -192 -6 1 -29 40 -51 87 -48 104 -103 198 -162 276 -23 31 -43 59 -43 61 0 8 107 47 180 65 99 26 150 27 150 3z m393 -11 c83 -22 177 -59 177 -71 0 -9 -140 -234 -195 -312 -64 -92 -64 -93 -50 190 8 146 7 152 -11 152 -11 0 -24 -8 -31 -19 -6 -10 -35 -26 -63 -35 -42 -14 -58 -15 -86 -6 -19 6 -34 15 -34 18 0 12 74 66 77 56 13 -36 50 -51 79 -30 16 13 17 18 7 35 -7 12 -13 25 -13 31 0 16 60 12 143 -9z m-843 -166 c17 -50 8 -65 -37 -65 -76 0 -113 -11 -113 -33 0 -28 116 -181 219 -289 25 -27 42 -48 39 -48 -6 0 -131 54 -234 101 -23 10 -74 36 -113 57 l-72 39 44 59 c70 94 206 214 244 214 6 0 17 -16 23 -35z m1188 -51 c2 -28 -3 -48 -16 -64 -23 -28 -37 -21 -52 26 -10 29 -9 39 5 60 11 17 24 24 38 22 18 -2 23 -11 25 -44z m199 -139 c34 -47 41 -62 31 -71 -7 -7 -53 -35 -103 -62 -49 -27 -121 -66 -160 -88 l-70 -38 73 84 c47 55 88 116 115 171 48 99 45 99 114 4z m-2342 -11 c28 -23 28 -24 5 -15 -14 5 -33 12 -43 15 -10 3 -15 10 -12 16 9 15 17 12 50 -16z m260 -44 c-16 -16 -31 -27 -34 -24 -6 6 45 54 56 54 4 0 -6 -13 -22 -30z m-135 -2 c36 -11 99 -36 140 -55 42 -18 81 -33 87 -33 6 0 89 -34 184 -76 96 -42 182 -78 192 -81 21 -7 17 -27 -6 -31 -9 -2 -47 11 -84 28 -37 18 -162 73 -278 122 -245 105 -336 147 -315 148 8 0 44 -10 80 -22z m2314 -115 c51 -104 50 -102 12 -118 -48 -20 -63 -19 -43 3 15 17 15 21 -8 65 -28 51 -31 73 -12 80 26 11 34 6 51 -30z m-104 -147 c0 -2 -7 -7 -16 -10 -8 -3 -12 -2 -9 4 6 10 25 14 25 6z m-90 -56 c-33 -26 -52 -25 -21 0 13 11 28 20 35 20 6 0 0 -9 -14 -20z m-1025 -488 c16 -31 41 -62 54 -68 13 -7 27 -18 32 -26 6 -10 11 -10 21 0 18 18 26 15 43 -22 13 -27 25 -36 63 -46 26 -7 54 -19 63 -27 40 -34 151 7 165 62 8 32 27 32 44 0 12 -23 40 -35 40 -17 0 9 61 44 67 38 7 -6 -23 -59 -53 -95 -80 -95 -267 -115 -407 -44 -57 28 -142 109 -158 150 -18 45 -29 113 -23 140 8 29 11 27 49 -45z"/>
    <path d="M4370 5319 c-246 -14 -395 -48 -598 -136 -99 -42 -266 -135 -278 -154 -3 -5 45 -9 108 -9 62 0 123 -3 135 -6 46 -13 9 -24 -78 -24 l-89 0 0 -50 c0 -59 -15 -66 -24 -11 -5 32 -11 41 -37 50 -42 14 -66 14 -75 -1 -5 -7 -18 -51 -30 -98 -12 -47 -23 -78 -23 -69 -1 8 -11 25 -24 37 -40 38 -108 30 -216 -24 -199 -99 -375 -283 -477 -498 l-37 -78 24 -19 c62 -46 481 -284 666 -378 65 -32 111 -40 118 -18 2 6 6 33 10 59 l6 47 36 -40 c19 -21 43 -39 53 -39 9 0 37 15 61 34 284 216 634 329 964 311 225 -12 359 -44 520 -126 214 -109 381 -266 505 -472 61 -103 42 -101 220 -30 138 54 203 84 470 216 154 77 217 114 254 149 47 46 49 48 42 90 -10 60 -52 150 -106 224 -57 78 -176 205 -184 197 -3 -4 -6 -22 -7 -42 -1 -35 -1 -35 -14 13 -11 40 -27 61 -82 113 -87 82 -99 89 -113 64 -16 -31 -40 -51 -61 -51 -18 0 -20 5 -14 43 11 74 -8 120 -87 203 -93 97 -167 156 -314 247 -153 95 -237 137 -361 180 -238 83 -529 116 -863 96z m1789 -853 c9 -11 10 -20 1 -36 -21 -39 -83 -7 -67 34 8 20 50 21 66 2z"/>
  </g>
</svg>