<svg version="1.0" xmlns="http://www.w3.org/2000/svg" width="800.000000" height="800.000000" viewBox="0 0 800.000000 800.000000" preserveAspectRatio="xMidYMid meet">
  <metadata>
    <rdf:RDF xmlns:rdf="http://www.w3.org/1999/02/22-rdf-syntax-ns#" xmlns:rdfs="http://www.w3.org/2000/01/rdf-schema#" xmlns:dc="http://purl.org/dc/elements/1.1/">
      <rdf:Description dc:format="image/svg+xml" dc:Label="1" dc:ContentProducer="001191330110MACRLGPT8B00000" dc:ProduceID="448343508" dc:ReservedCode1="oUEnKubC+xqXJCAeNP7hDbGmCJGIxiqZlqcslLC03s4=" dc:ContentPropagator="001191330110MACRLGPT8B00000" dc:PropagateID="448343508" dc:ReservedCode2="oUEnKubC+xqXJCAeNP7hDbGmCJGIxiqZlqcslLC03s4="/>
    </rdf:RDF>
  </metadata>
  <g transform="translate(15.980533,775.133714) scale(0.094439,-0.094439)" fill="#000000" stroke="none">
    <path d="M3560 5440 c-55 -9 -108 -31 -172 -70 -27 -17 -54 -30 -62 -30 -7 0 -39 16 -71 35 -85 51 -145 68 -223 63 -86 -5 -169 -45 -238 -114 -96 -94 -127 -200 -85 -288 38 -78 125 -111 168 -63 11 12 36 56 55 97 48 101 74 125 130 117 33 -4 51 -15 77 -43 l34 -37 -7 -91 c-3 -50 -9 -143 -12 -207 l-7 -116 -101 -22 c-264 -59 -564 -181 -751 -305 -103 -69 -293 -253 -347 -336 -129 -200 -136 -287 -41 -495 135 -292 354 -500 673 -640 274 -120 549 -171 967 -180 l173 -3 72 -67 c100 -91 208 -145 292 -145 39 0 70 6 83 15 31 22 54 75 67 153 l11 66 145 34 c274 63 533 163 715 276 228 140 448 352 596 573 29 43 56 81 61 84 6 3 46 9 91 12 161 13 245 51 368 167 62 58 69 69 69 103 0 32 -7 45 -46 83 -99 95 -209 154 -292 154 -50 0 -167 -32 -186 -51 -19 -17 -26 -9 -69 84 -50 104 -119 201 -180 251 -51 41 -171 106 -197 106 -30 0 -82 -51 -105 -105 -22 -48 -37 -126 -50 -257 -4 -32 -10 -58 -13 -58 -4 0 -66 32 -137 71 -541 295 -865 403 -1345 446 -96 8 -180 17 -186 19 -19 5 -28 199 -14 285 15 87 29 118 70 153 65 55 129 19 195 -109 44 -84 66 -105 112 -105 84 0 137 129 103 251 -22 80 -97 157 -205 211 -58 29 -122 39 -185 28z m-266 -542 c4 -17 2 -28 -4 -28 -5 0 -10 14 -10 32 0 36 4 35 14 -4z m396 -308 c248 -23 533 -88 743 -171 112 -44 282 -127 472 -230 215 -116 272 -142 300 -135 43 11 57 47 71 184 30 279 45 291 190 146 58 -58 82 -91 128 -185 32 -63 67 -122 79 -131 33 -26 86 -22 173 13 84 34 114 34 181 3 63 -30 134 -85 131 -102 -5 -25 -135 -118 -191 -136 -29 -10 -99 -20 -157 -23 -123 -7 -120 -6 -212 -149 -116 -182 -340 -402 -528 -518 -111 -69 -227 -123 -292 -137 -99 -22 -368 14 -530 71 -104 36 -131 37 -159 9 -20 -20 -21 -29 -16 -103 3 -46 14 -104 26 -136 14 -37 21 -78 21 -125 0 -104 -5 -115 -49 -115 -128 0 -331 206 -418 424 -39 97 -79 149 -150 192 -34 22 -174 112 -310 200 -137 89 -288 184 -336 212 -143 82 -270 102 -655 102 -277 0 -268 -3 -238 84 29 82 82 154 200 272 160 159 296 245 542 340 172 66 344 113 504 139 104 16 326 18 480 5z m-1496 -1190 c55 -62 185 -179 220 -197 l29 -15 -7 41 c-3 23 -2 41 2 41 5 0 21 -22 35 -49 41 -74 77 -80 77 -13 l0 37 51 -55 c118 -129 137 -145 195 -169 79 -31 172 -57 179 -49 4 3 -1 18 -10 32 -21 32 -19 31 83 -20 37 -19 98 -41 135 -50 47 -12 65 -20 58 -27 -15 -15 -173 -11 -256 7 -146 31 -369 111 -505 180 -90 46 -346 319 -377 403 -4 10 6 2 22 -17 16 -19 47 -55 69 -80z m2249 -477 c48 -3 84 -9 80 -14 -9 -8 -167 -43 -245 -53 -51 -8 -51 -8 -63 70 l-6 41 73 -19 c40 -10 113 -21 161 -25z"/>
    <path d="M5352 4375 c-7 -15 -12 -74 -12 -135 l0 -109 36 24 c20 14 42 32 49 41 11 15 13 15 28 -6 22 -32 40 -16 32 29 -14 78 -77 181 -110 181 -7 0 -17 -11 -23 -25z"/>
    <path d="M2800 4355 c-214 -48 -409 -150 -567 -299 -65 -60 -163 -180 -163 -199 0 -10 47 -6 129 12 44 9 69 30 49 42 -18 11 34 50 127 94 50 23 99 45 110 48 11 3 46 13 78 22 49 14 56 19 46 31 -16 20 -12 22 62 37 l64 13 -33 21 -34 21 34 11 c52 16 157 31 228 31 36 0 71 4 79 9 14 9 6 12 -82 27 -85 14 -50 24 188 52 l70 8 -50 13 c-79 20 -259 23 -335 6z"/>
    <path d="M5950 4033 c-8 -4 -31 -18 -50 -32 -19 -14 -37 -26 -39 -28 -2 -1 2 -10 9 -19 17 -19 7 -27 -67 -51 -29 -9 -53 -21 -53 -26 0 -17 191 -3 230 17 43 22 110 85 110 104 0 27 -96 51 -140 35z"/>
    <path d="M3474 3779 c-61 -17 -124 -112 -124 -186 0 -87 116 -189 194 -169 55 14 136 108 149 172 8 41 -9 103 -36 133 -27 29 -94 61 -127 60 -14 0 -39 -5 -56 -10z m81 -41 l26 -23 -54 0 c-54 0 -57 3 -32 32 15 18 31 16 60 -9z m-19 -123 c10 -39 -4 -75 -32 -85 -14 -6 -30 -8 -35 -4 -16 10 -10 61 12 88 26 33 47 33 55 1z"/>
    <path d="M5470 3664 c-17 -20 -230 -194 -298 -243 l-47 -33 -5 36 -5 37 -36 -34 c-70 -66 -144 -115 -184 -122 -33 -6 -123 -33 -205 -62 -22 -8 25 -21 83 -22 51 -1 63 -16 20 -25 -93 -20 -264 -46 -300 -46 -63 0 -52 -15 25 -33 249 -60 405 -17 670 184 123 93 227 212 286 327 20 39 17 62 -4 36z"/>
    <path d="M3754 3018 c11 -70 60 -158 135 -239 72 -78 119 -109 166 -109 24 0 26 3 23 37 -3 33 -8 39 -53 62 -63 33 -92 76 -101 152 -4 32 -9 59 -12 59 -3 0 -16 -10 -28 -21 -31 -29 -47 -20 -89 46 -20 30 -38 55 -42 55 -3 0 -3 -19 1 -42z"/>
  </g>
</svg>