<svg version="1.0" xmlns="http://www.w3.org/2000/svg" width="800.000000" height="800.000000" viewBox="0 0 800.000000 800.000000" preserveAspectRatio="xMidYMid meet">
  <metadata>
    <rdf:RDF xmlns:rdf="http://www.w3.org/1999/02/22-rdf-syntax-ns#" xmlns:rdfs="http://www.w3.org/2000/01/rdf-schema#" xmlns:dc="http://purl.org/dc/elements/1.1/">
      <rdf:Description dc:format="image/svg+xml" dc:Label="1" dc:ContentProducer="001191330110MACRLGPT8B00000" dc:ProduceID="448343510" dc:ReservedCode1="iNWB4S7zZR3UFuo5i4/0PmvQeaVmh29k2AQRkrrNLYA=" dc:ContentPropagator="001191330110MACRLGPT8B00000" dc:PropagateID="448343510" dc:ReservedCode2="iNWB4S7zZR3UFuo5i4/0PmvQeaVmh29k2AQRkrrNLYA="/>
    </rdf:RDF>
  </metadata>
  <g transform="translate(-71.590316,828.420889) scale(0.112473,-0.112473)" fill="#000000" stroke="none">
    <path d="M3846 5480 c-313 -30 -595 -134 -821 -303 -106 -79 -339 -311 -414 -412 -128 -171 -210 -332 -259 -513 -24 -90 -26 -112 -26 -297 0 -177 2 -210 22 -284 48 -176 143 -307 269 -374 119 -62 227 -85 468 -102 129 -9 304 -41 382 -70 134 -51 255 -155 355 -305 31 -47 106 -185 167 -306 145 -288 196 -343 353 -376 146 -31 380 76 641 292 158 130 332 351 411 521 83 181 156 463 156 604 l0 54 118 66 c223 127 319 214 367 332 44 110 31 188 -43 255 -101 91 -204 108 -322 52 -85 -40 -130 -58 -134 -53 -2 2 -16 45 -31 94 -53 175 -171 389 -294 535 -181 214 -428 396 -662 489 -212 83 -480 122 -703 101z m245 -110 c294 -29 520 -115 744 -281 237 -177 416 -398 516 -639 30 -72 78 -223 79 -246 0 -6 -55 -43 -122 -82 -129 -74 -284 -174 -512 -329 -157 -107 -187 -118 -372 -132 -185 -14 -227 -36 -367 -200 -107 -125 -167 -215 -167 -251 0 -72 136 -201 267 -252 182 -71 339 -37 524 113 40 33 109 89 152 123 77 62 209 142 377 226 47 24 116 61 153 83 38 21 70 37 72 35 10 -10 -29 -220 -60 -322 -95 -313 -278 -568 -556 -775 -166 -125 -305 -190 -410 -193 -70 -2 -154 36 -199 90 -17 20 -76 129 -132 242 -138 283 -221 404 -360 525 -139 122 -300 172 -654 205 -241 22 -294 34 -397 87 -112 59 -176 155 -218 329 -27 108 -32 333 -10 429 54 238 169 452 356 658 103 114 233 233 330 302 187 133 452 226 720 254 116 12 132 12 246 1z m1790 -1134 c32 -13 79 -48 79 -58 0 -2 -30 6 -67 18 -38 13 -83 24 -100 24 -37 0 -45 16 -10 23 43 8 65 7 98 -7z m-621 -336 c8 -5 11 -12 7 -16 -4 -4 -15 0 -24 9 -18 18 -8 23 17 7z m-650 -756 c-72 -73 -106 -94 -147 -94 l-28 1 30 13 c33 14 95 64 95 76 0 4 -28 10 -62 13 -35 3 -81 12 -103 19 -38 12 -32 13 102 18 78 3 145 8 149 13 4 4 12 7 18 7 6 0 -19 -30 -54 -66z"/>
    <path d="M4155 5270 c-4 -6 8 -10 32 -10 66 0 107 -17 119 -48 12 -31 42 -42 118 -42 22 0 66 -7 96 -15 68 -18 69 -18 45 -1 -92 63 -390 148 -410 116z"/>
    <path d="M4745 4975 c15 -14 25 -36 25 -52 1 -22 3 -25 10 -12 13 22 4 61 -17 77 -30 22 -43 13 -18 -13z"/>
    <path d="M3710 4911 c-73 -24 -116 -61 -169 -145 -37 -59 -41 -119 -12 -181 46 -101 125 -156 237 -163 89 -6 147 13 207 67 83 75 108 183 63 276 -31 65 -68 103 -125 128 -49 22 -160 32 -201 18z"/>
    <path d="M4545 4892 c-72 -34 -145 -147 -145 -225 0 -97 97 -197 191 -197 67 0 114 25 149 79 44 70 56 127 41 194 -30 134 -131 198 -236 149z m-9 -87 c-21 -16 -32 -13 -21 4 3 6 14 11 23 11 15 -1 15 -2 -2 -15z"/>
    <path d="M2970 4471 c-103 -24 -184 -93 -239 -204 -30 -62 -33 -75 -29 -140 4 -86 30 -145 94 -217 66 -73 153 -112 258 -118 106 -6 166 18 234 92 124 136 120 341 -9 480 -74 81 -213 128 -309 107z"/>
    <path d="M2583 3805 c5 -142 26 -209 87 -278 61 -69 146 -96 445 -142 l30 -4 -35 18 c-19 10 -88 33 -153 50 -116 30 -153 47 -191 90 -23 25 -20 26 27 6 65 -27 63 -15 -3 27 -70 45 -67 59 7 34 25 -9 49 -13 52 -10 3 3 -30 41 -75 83 -88 83 -140 144 -173 206 l-22 40 4 -120z"/>
    <path d="M5186 3019 c-122 -179 -207 -251 -466 -390 -155 -83 -145 -77 -137 -85 3 -3 40 4 82 15 43 12 80 20 82 18 8 -8 -133 -105 -203 -140 -39 -20 -106 -45 -148 -56 -43 -10 -80 -22 -83 -24 -2 -3 5 -11 18 -17 34 -19 144 -7 217 23 127 52 340 218 453 353 94 112 270 386 257 399 -3 3 -35 -40 -72 -96z"/>
    <path d="M4448 2458 c-45 -12 -50 -28 -9 -28 37 0 81 16 81 30 0 12 -22 11 -72 -2z"/>
  </g>
</svg>