<svg version="1.0" xmlns="http://www.w3.org/2000/svg" width="800.000000" height="800.000000" viewBox="0 0 800.000000 800.000000" preserveAspectRatio="xMidYMid meet">
  <metadata>
    <rdf:RDF xmlns:rdf="http://www.w3.org/1999/02/22-rdf-syntax-ns#" xmlns:rdfs="http://www.w3.org/2000/01/rdf-schema#" xmlns:dc="http://purl.org/dc/elements/1.1/">
      <rdf:Description dc:format="image/svg+xml" dc:Label="1" dc:ContentProducer="001191330110MACRLGPT8B00000" dc:ProduceID="448339193" dc:ReservedCode1="UmhmV5/rr7KgaHKpGEDMuki/0uh0Iahvrw1/UWn2/iw=" dc:ContentPropagator="001191330110MACRLGPT8B00000" dc:PropagateID="448339193" dc:ReservedCode2="UmhmV5/rr7KgaHKpGEDMuki/0uh0Iahvrw1/UWn2/iw="/>
    </rdf:RDF>
  </metadata>
  <g transform="translate(-52.226860,873.485597) scale(0.111675,-0.111675)" fill="#000000" stroke="none">
    <path d="M4378 6101 c-54 -43 -115 -199 -168 -431 -17 -74 -34 -138 -38 -142 -4 -4 -70 -21 -147 -38 -286 -64 -425 -123 -459 -195 -33 -69 -17 -97 242 -413 74 -90 83 -106 75 -125 -22 -49 -387 -442 -752 -812 -790 -800 -824 -835 -909 -954 -41 -57 -47 -72 -50 -125 -4 -54 0 -68 31 -128 59 -113 240 -317 319 -361 62 -33 144 -20 234 39 65 43 470 438 1179 1151 314 316 577 573 587 573 9 0 83 -71 165 -157 301 -320 294 -314 341 -320 91 -12 117 35 197 357 59 235 86 299 133 324 15 8 101 32 192 55 218 54 313 88 345 122 35 36 44 96 19 135 -23 36 -143 187 -287 358 -59 71 -110 141 -114 154 -6 24 10 86 82 322 45 146 55 242 30 290 -23 44 -48 66 -91 80 -52 17 -97 6 -472 -116 -57 -19 -112 -18 -142 3 -31 21 -118 94 -240 202 -193 171 -244 197 -302 152z m139 -120 c13 -19 23 -38 23 -42 0 -13 -44 -11 -58 3 -9 9 -18 9 -38 -1 -25 -11 -26 -14 -21 -68 l6 -55 -25 23 c-28 26 -28 26 -61 -38 -13 -26 -21 -37 -17 -24 4 16 3 21 -5 16 -8 -4 -10 1 -6 19 3 14 7 38 10 52 14 65 106 158 150 152 10 -2 30 -18 42 -37z m873 -301 c0 -13 -41 -39 -81 -50 -38 -11 -52 -4 -25 13 77 47 106 58 106 37z m97 -52 c-3 -8 -6 -5 -6 6 -1 11 2 17 5 13 3 -3 4 -12 1 -19z m-1489 -240 c-3 -7 -26 -25 -52 -39 -26 -14 -55 -33 -64 -42 -15 -16 -13 -17 26 -17 23 0 42 -4 42 -9 0 -12 -52 -35 -123 -55 -51 -15 -57 -19 -46 -32 7 -9 31 -25 53 -37 l41 -22 -33 -3 c-32 -3 -33 -5 -26 -35 l6 -32 -22 20 c-13 11 -36 38 -51 59 -51 69 -31 164 43 202 88 46 215 71 206 42z m1662 -823 c0 -11 -85 -45 -113 -45 -15 0 -45 11 -65 25 l-37 25 108 0 c59 0 107 -2 107 -5z m-1835 -84 c-14 -28 -32 -51 -40 -51 -24 0 -18 21 22 80 45 67 57 47 18 -29z m1620 9 c-3 -5 -16 -10 -28 -9 -21 0 -21 1 -2 9 28 12 37 12 30 0z m-1479 -90 c8 0 26 7 40 16 33 22 36 16 14 -31 -21 -45 -18 -55 7 -33 10 8 28 18 40 20 30 8 38 -45 10 -70 -11 -9 -37 -39 -58 -65 -39 -49 -42 -77 -8 -77 18 0 70 20 79 30 18 21 59 40 86 40 17 0 57 9 89 20 78 27 94 26 69 -1 -56 -62 -221 -147 -320 -163 -60 -10 -110 13 -130 60 -17 41 -14 89 16 216 23 98 31 112 42 70 5 -18 15 -32 24 -32z m-520 -352 c17 -18 57 -67 90 -108 74 -94 232 -272 250 -283 24 -14 15 -44 -21 -76 -41 -36 -55 -38 -83 -13 -49 43 -279 330 -315 392 -25 43 -25 47 -11 75 28 55 49 57 90 13z m1694 -11 c0 -30 -51 -132 -88 -176 -23 -28 -33 -33 -54 -28 -27 7 -60 53 -72 101 l-7 28 34 -21 c43 -26 43 -26 72 5 16 17 25 22 25 13 1 -8 10 8 20 35 11 27 25 53 32 58 23 14 38 8 38 -15z m-906 -9 c-11 -39 -23 -46 -91 -58 -59 -10 -85 -8 -72 5 7 7 153 74 162 74 5 1 5 -9 1 -21z m-1167 -380 c155 -171 277 -301 326 -348 31 -31 57 -60 57 -66 0 -16 -50 -65 -77 -75 -39 -14 -61 -2 -82 46 -19 42 -131 173 -278 324 -40 41 -73 82 -73 92 0 19 54 69 75 69 8 0 31 -19 52 -42z m-547 -526 c-36 -85 -80 -251 -71 -272 4 -11 7 -9 9 8 2 12 10 34 17 49 l14 26 9 -24 c6 -13 15 -58 21 -99 12 -84 75 -223 102 -228 9 -2 53 22 98 52 45 31 92 58 105 62 12 3 64 37 114 75 51 38 92 66 92 62 0 -5 -42 -52 -94 -105 -138 -141 -258 -218 -341 -218 -42 0 -49 4 -95 52 -119 125 -186 349 -132 445 22 40 176 207 180 195 1 -5 -11 -41 -28 -80z"/>
  </g>
</svg>