<svg version="1.0" xmlns="http://www.w3.org/2000/svg" width="800.000000" height="800.000000" viewBox="0 0 800.000000 800.000000" preserveAspectRatio="xMidYMid meet">
  <metadata>
    <rdf:RDF xmlns:rdf="http://www.w3.org/1999/02/22-rdf-syntax-ns#" xmlns:rdfs="http://www.w3.org/2000/01/rdf-schema#" xmlns:dc="http://purl.org/dc/elements/1.1/">
      <rdf:Description dc:format="image/svg+xml" dc:Label="1" dc:ContentProducer="001191330110MACRLGPT8B00000" dc:ProduceID="448343509" dc:ReservedCode1="4Sm/7Z0Ith4njjUYQ89rydOY5c1ruiNVKXfSn8fjlyQ=" dc:ContentPropagator="001191330110MACRLGPT8B00000" dc:PropagateID="448343509" dc:ReservedCode2="4Sm/7Z0Ith4njjUYQ89rydOY5c1ruiNVKXfSn8fjlyQ="/>
    </rdf:RDF>
  </metadata>
  <g transform="translate(-99.476014,862.812966) scale(0.118069,-0.118069)" fill="#000000" stroke="none">
    <path d="M3318 5685 c-81 -20 -133 -49 -196 -109 -67 -62 -115 -135 -149 -224 -91 -239 -96 -451 -11 -548 57 -65 93 -76 285 -88 97 -6 177 -16 183 -22 6 -6 17 -59 25 -117 17 -127 29 -175 62 -246 23 -47 24 -57 13 -75 -8 -12 -32 -55 -55 -96 -23 -41 -76 -127 -117 -190 -309 -477 -501 -875 -559 -1156 -27 -132 -23 -211 15 -289 83 -169 381 -295 856 -361 157 -21 721 -31 913 -15 265 23 455 58 648 121 254 83 389 178 436 303 18 50 15 183 -7 272 -62 257 -261 653 -499 995 -178 256 -211 308 -240 383 l-31 78 34 102 c19 56 40 138 45 182 5 44 13 88 16 97 8 20 25 23 208 37 188 14 252 46 303 148 29 58 27 288 -4 396 -48 168 -122 286 -222 356 -74 51 -131 72 -215 78 -128 10 -259 -37 -357 -126 -30 -28 -71 -54 -95 -61 -54 -17 -764 -9 -807 9 -15 6 -54 34 -85 62 -85 76 -165 112 -259 115 -45 2 -101 -3 -134 -11z m222 -144 c64 -32 156 -126 273 -276 124 -160 208 -249 267 -284 38 -22 57 -26 120 -26 62 0 85 5 133 28 77 38 164 126 272 277 125 173 183 233 263 272 58 29 76 33 147 33 67 0 89 -4 137 -28 64 -32 127 -97 165 -171 41 -81 73 -226 73 -330 0 -161 -15 -172 -248 -190 -132 -10 -180 -18 -209 -33 -52 -27 -80 -86 -93 -193 -14 -121 -47 -219 -85 -253 -71 -65 -240 -92 -585 -91 -323 0 -467 22 -517 77 -24 26 -49 102 -58 172 -24 193 -42 247 -97 288 -22 16 -51 21 -175 28 -200 12 -229 16 -261 44 -25 21 -27 30 -30 107 -6 148 68 372 153 467 95 105 244 140 355 82z m979 -198 c-70 -118 -154 -205 -237 -247 -76 -38 -128 -31 -177 25 -20 22 -20 22 0 14 11 -4 45 -10 75 -12 43 -4 67 0 110 19 60 27 156 115 209 191 38 56 52 62 20 10z m-280 15 l116 -12 -70 -13 c-38 -6 -95 -12 -125 -12 -68 -1 -208 23 -223 38 -15 15 152 15 302 -1z m-507 -1189 c29 -5 70 -17 91 -26 l38 -17 -33 -17 c-51 -28 -90 -24 -139 14 -73 56 -62 67 43 46z m1047 -16 c11 -10 28 -36 37 -58 9 -22 12 -35 6 -30 -69 74 -93 105 -79 105 8 0 24 -8 36 -17z m-225 -4 c-18 -30 -135 -52 -149 -28 -10 15 0 22 48 30 69 11 109 10 101 -2z m-541 -16 c-7 -2 -21 -2 -30 0 -10 3 -4 5 12 5 17 0 24 -2 18 -5z m-380 -63 c12 -8 46 -29 76 -47 l55 -33 -43 0 c-37 0 -131 31 -154 50 -4 4 0 24 10 44 15 33 19 35 26 19 4 -11 18 -25 30 -33z m1115 -6 c28 -19 29 -44 2 -44 -30 0 -84 42 -68 52 20 12 41 10 66 -8z m197 -143 c85 -121 244 -367 304 -468 170 -288 311 -639 311 -776 0 -82 -55 -144 -187 -211 -102 -51 -162 -72 -293 -105 -314 -80 -710 -113 -1070 -92 -410 25 -646 68 -860 158 -183 76 -240 136 -240 250 0 199 184 620 480 1103 86 139 94 150 110 144 255 -108 649 -140 1030 -84 178 27 304 58 342 85 43 30 49 30 73 -4z m-684 2 c44 -4 57 -9 44 -14 -25 -10 -167 -11 -231 -2 -109 15 58 30 187 16z"/>
    <path d="M3350 5441 c-94 -20 -148 -77 -185 -193 -29 -91 -43 -215 -28 -242 8 -15 12 -9 22 31 21 80 30 96 86 153 43 43 55 62 55 86 0 64 74 116 190 134 36 5 69 10 75 10 5 0 5 3 0 9 -13 13 -171 22 -215 12z"/>
    <path d="M3535 3680 c-8 -13 3 -30 20 -30 19 0 26 27 9 34 -21 8 -22 8 -29 -4z"/>
    <path d="M4967 3683 c-13 -12 -7 -41 9 -47 42 -16 60 7 28 38 -17 17 -27 20 -37 9z"/>
    <path d="M3417 3664 c-11 -11 5 -34 25 -34 14 0 18 5 14 16 -3 9 -6 18 -6 20 0 6 -26 5 -33 -2z"/>
    <path d="M3180 3065 c0 -2 -25 -90 -55 -194 -30 -105 -55 -203 -55 -220 0 -20 10 -40 31 -61 64 -63 180 -103 369 -125 74 -9 177 -23 229 -31 94 -15 126 -13 78 5 -200 76 -368 162 -400 204 -36 48 -58 97 -122 270 -31 86 -61 157 -66 157 -5 0 -9 -2 -9 -5z"/>
    <path d="M5378 2765 c-29 -45 -64 -79 -158 -152 -78 -61 -135 -120 -106 -109 10 3 58 15 107 26 105 23 136 37 178 86 31 35 33 40 26 92 -4 30 -10 64 -14 76 -7 18 -10 17 -33 -19z"/>
  </g>
</svg>