<svg version="1.0" xmlns="http://www.w3.org/2000/svg" width="800.000000" height="800.000000" viewBox="0 0 800.000000 800.000000" preserveAspectRatio="xMidYMid meet">
  <metadata>
    <rdf:RDF xmlns:rdf="http://www.w3.org/1999/02/22-rdf-syntax-ns#" xmlns:rdfs="http://www.w3.org/2000/01/rdf-schema#" xmlns:dc="http://purl.org/dc/elements/1.1/">
      <rdf:Description dc:format="image/svg+xml" dc:Label="1" dc:ContentProducer="001191330110MACRLGPT8B00000" dc:ProduceID="448333829" dc:ReservedCode1="wTR1SkSnGy2Z7RDkKIQ8T5PQHLMIlbCftRtJH34MTzk=" dc:ContentPropagator="001191330110MACRLGPT8B00000" dc:PropagateID="448333829" dc:ReservedCode2="wTR1SkSnGy2Z7RDkKIQ8T5PQHLMIlbCftRtJH34MTzk="/>
    </rdf:RDF>
  </metadata>
  <g transform="translate(-66.350335,835.581573) scale(0.109085,-0.109085)" fill="#000000" stroke="none">
    <path d="M4132 5569 c-156 -12 -200 -28 -263 -96 -64 -70 -97 -141 -138 -296 -17 -65 -43 -147 -57 -182 l-25 -63 -87 -21 c-48 -12 -132 -44 -187 -71 -134 -65 -208 -133 -265 -240 -23 -45 -48 -84 -55 -86 -7 -3 -34 11 -60 30 -58 45 -85 52 -121 33 -55 -29 -169 -135 -199 -185 -29 -49 -30 -49 -125 -76 -161 -45 -200 -86 -200 -210 0 -145 151 -495 299 -691 168 -222 445 -411 734 -500 45 -14 88 -29 96 -34 11 -7 12 -32 6 -132 -13 -211 -12 -225 11 -256 59 -79 112 -86 729 -85 515 0 726 10 796 39 88 35 107 98 69 223 -11 36 -23 95 -26 133 -6 56 -4 70 11 87 10 11 74 37 148 61 443 139 712 406 905 899 93 235 96 363 11 435 -52 43 -110 65 -211 78 l-93 13 -32 48 c-80 123 -139 159 -314 191 -74 14 -148 32 -165 39 -19 9 -52 45 -88 95 -55 79 -146 165 -209 197 -17 9 -54 24 -81 33 l-50 16 -38 125 c-49 165 -105 275 -172 338 -119 113 -233 136 -554 111z m389 -137 c106 -52 166 -151 238 -392 77 -262 152 -489 199 -606 l21 -52 -197 -7 c-209 -7 -1142 -3 -1142 5 1 18 42 230 55 282 9 35 45 153 80 263 35 110 76 243 90 295 31 114 70 179 122 204 51 25 156 35 338 32 133 -1 155 -4 196 -24z m-1036 -661 c-6 -5 -36 -18 -68 -30 -32 -12 -73 -28 -90 -37 l-32 -15 35 31 c19 17 55 37 80 45 52 16 88 19 75 6z m2342 -516 c172 -29 228 -47 250 -82 15 -22 15 -32 4 -86 -28 -138 -144 -405 -236 -542 -109 -164 -275 -315 -434 -394 -42 -21 -147 -62 -233 -90 -180 -60 -208 -81 -227 -171 -16 -74 -14 -107 14 -214 14 -53 25 -100 25 -105 0 -12 -87 -29 -165 -33 l-59 -3 -7 45 c-4 25 -12 104 -19 175 -26 297 -51 390 -126 482 -73 89 -168 133 -287 133 -183 0 -342 -103 -423 -275 -55 -116 -65 -171 -71 -379 l-6 -188 -96 7 c-117 8 -146 23 -137 68 4 18 9 88 12 157 5 117 4 128 -18 170 -27 52 -49 65 -193 110 -258 82 -531 277 -676 484 -125 177 -259 487 -259 598 0 38 26 54 126 77 218 50 276 53 1556 60 658 3 1200 10 1204 14 4 4 81 7 170 7 128 0 195 -5 311 -25z m-1648 -1018 c-41 -19 -58 -36 -81 -86 -21 -45 -22 -46 -26 -17 -2 16 -1 44 3 62 4 26 12 35 33 40 15 3 32 7 37 9 6 2 21 3 35 3 l25 0 -26 -11z m365 -627 c-11 -11 -74 -32 -74 -25 0 3 12 11 28 19 32 18 61 21 46 6z m104 -32 c-6 -18 -28 -21 -28 -4 0 9 7 16 16 16 9 0 14 -5 12 -12z"/>
    <path d="M4076 5344 c-36 -35 -6 -94 48 -94 75 0 91 57 26 90 -47 24 -54 25 -74 4z"/>
    <path d="M4236 5315 c-9 -25 4 -45 30 -45 19 0 24 5 24 24 0 33 -43 50 -54 21z"/>
    <path d="M3949 5248 c-49 -41 -98 -218 -60 -218 3 0 17 8 30 18 14 9 56 33 95 52 l71 35 3 48 c3 43 1 48 -23 57 -49 18 -99 22 -116 8z"/>
    <path d="M3752 4637 c-6 -7 -16 -42 -23 -79 -13 -73 -5 -98 33 -98 28 0 76 27 88 50 10 18 7 21 -19 26 -25 5 -33 14 -41 43 -5 20 -10 41 -10 48 0 18 -17 24 -28 10z"/>
    <path d="M5592 4202 c-18 -4 -33 -11 -33 -17 0 -5 36 -21 81 -35 98 -32 126 -52 165 -118 21 -35 41 -55 68 -67 21 -9 41 -14 44 -11 3 3 12 1 19 -5 40 -33 93 47 94 138 0 40 -5 58 -23 79 -21 25 -29 26 -112 28 -50 2 -130 5 -180 9 -49 3 -105 3 -123 -1z m347 -213 c-16 -10 -23 -4 -14 10 3 6 11 8 17 5 6 -4 5 -9 -3 -15z"/>
    <path d="M2892 4154 c-12 -8 -22 -24 -22 -35 0 -16 7 -19 45 -19 41 0 45 2 45 25 0 14 -8 29 -19 35 -25 13 -22 13 -49 -6z"/>
    <path d="M2600 4041 c-24 -47 -1 -131 37 -131 34 0 133 89 133 119 0 16 -53 31 -105 31 -43 0 -56 -4 -65 -19z"/>
    <path d="M5852 3859 c-38 -11 -38 -28 1 -47 15 -7 27 -20 27 -28 0 -27 35 -14 54 20 32 61 4 79 -82 55z"/>
    <path d="M5713 3500 c-126 -132 -213 -196 -358 -265 -72 -34 -148 -68 -168 -76 -38 -13 -49 -29 -22 -29 9 0 51 7 93 16 148 30 278 108 406 244 69 74 143 176 134 186 -4 3 -41 -31 -85 -76z"/>
    <path d="M3230 3162 c0 -15 75 -56 158 -86 75 -27 146 -34 157 -16 10 15 35 12 35 -5 0 -18 12 -19 28 -3 34 34 -9 65 -128 93 -86 20 -250 32 -250 17z"/>
    <path d="M3630 2641 c-28 -53 0 -78 66 -59 55 16 67 34 27 44 -15 4 -40 13 -55 20 -25 13 -28 12 -38 -5z"/>
  </g>
</svg>