<svg version="1.0" xmlns="http://www.w3.org/2000/svg" width="800.000000" height="800.000000" viewBox="0 0 800.000000 800.000000" preserveAspectRatio="xMidYMid meet">
  <metadata>
    <rdf:RDF xmlns:rdf="http://www.w3.org/1999/02/22-rdf-syntax-ns#" xmlns:rdfs="http://www.w3.org/2000/01/rdf-schema#" xmlns:dc="http://purl.org/dc/elements/1.1/">
      <rdf:Description dc:format="image/svg+xml" dc:Label="1" dc:ContentProducer="001191330110MACRLGPT8B00000" dc:ProduceID="448339194" dc:ReservedCode1="2HxTXy9Eu9RNEqqGzk/D6VsLMJNz+Yrr6pW8uxd/Z88=" dc:ContentPropagator="001191330110MACRLGPT8B00000" dc:PropagateID="448339194" dc:ReservedCode2="2HxTXy9Eu9RNEqqGzk/D6VsLMJNz+Yrr6pW8uxd/Z88="/>
    </rdf:RDF>
  </metadata>
  <g transform="translate(-23.761694,873.324101) scale(0.108729,-0.108729)" fill="#000000" stroke="none">
    <path d="M3780 6161 c-95 -14 -165 -39 -241 -89 -41 -27 -80 -56 -88 -65 -7 -9 -28 -26 -46 -37 -32 -20 -36 -20 -191 -5 -262 25 -381 -1 -541 -119 -150 -110 -314 -396 -362 -631 -20 -97 -20 -97 -84 -164 -110 -114 -198 -267 -238 -416 -18 -65 -22 -110 -23 -240 -2 -246 33 -375 151 -571 131 -217 161 -276 176 -343 9 -36 23 -100 32 -141 34 -150 126 -309 247 -426 113 -110 310 -231 484 -298 156 -60 214 -71 369 -71 139 0 140 0 270 44 119 41 138 45 225 44 82 0 114 -6 235 -42 119 -36 157 -43 255 -48 100 -4 127 -1 210 20 282 73 482 187 627 356 78 91 138 211 187 371 75 248 102 311 212 492 142 233 193 412 181 637 -11 215 -61 361 -173 506 -40 54 -87 113 -104 131 -44 51 -67 102 -74 169 -37 328 -218 578 -496 688 -83 32 -205 47 -406 48 l-194 2 -63 44 c-101 72 -179 112 -258 132 -90 23 -205 32 -279 22z m275 -152 c56 -21 170 -88 162 -95 -2 -2 -30 7 -63 20 -83 34 -196 50 -311 44 -78 -4 -120 -12 -203 -41 l-105 -36 43 39 c45 41 124 76 202 90 75 15 208 4 275 -21z m-937 -174 c-2 -3 -31 -10 -64 -16 -103 -18 -219 -82 -299 -163 -38 -39 -79 -90 -89 -113 -19 -42 -46 -58 -46 -27 0 30 -25 7 -63 -57 -49 -81 -42 -40 13 76 78 163 213 272 370 298 37 6 184 8 178 2z m1805 -36 c34 -11 81 -32 104 -45 73 -42 162 -133 209 -213 41 -70 82 -177 71 -187 -2 -2 -15 16 -28 41 -22 41 -27 45 -52 39 -27 -6 -28 -5 -17 16 6 12 9 29 5 37 -5 13 -11 11 -35 -12 l-30 -29 0 35 c0 42 -49 130 -88 157 -57 41 -109 55 -178 48 -41 -4 -64 -3 -64 4 0 5 -7 10 -16 10 -11 0 -14 5 -9 18 17 40 16 49 -8 65 -13 8 -42 19 -63 23 -21 3 -46 11 -54 16 -29 18 189 -1 253 -23z m-2596 -881 c-64 -115 -76 -138 -102 -203 -53 -132 -68 -254 -55 -438 13 -184 65 -361 151 -514 62 -112 22 -71 -75 77 -203 307 -220 697 -42 973 33 53 122 147 138 147 5 0 -2 -19 -15 -42z m3311 -237 c36 -72 37 -80 40 -195 2 -67 -1 -132 -7 -146 -8 -21 -10 -16 -11 35 -2 143 -26 248 -81 358 -36 71 -36 77 -3 46 14 -13 42 -57 62 -98z m-1641 19 c94 -6 195 -15 225 -20 29 -6 121 -43 203 -83 l150 -72 105 -1 c58 0 113 -4 122 -8 29 -13 39 -67 50 -286 14 -284 -1 -608 -36 -760 -76 -335 -208 -487 -541 -623 -108 -44 -150 -53 -280 -62 -117 -8 -277 8 -345 35 -98 39 -284 135 -338 175 -201 148 -303 356 -331 678 -12 137 -14 586 -3 729 5 59 12 92 23 103 11 12 41 16 115 19 118 3 204 29 294 86 80 53 132 78 177 89 52 12 206 13 410 1z m-672 -11 c-11 -6 -32 -24 -46 -41 -23 -25 -30 -28 -47 -19 -12 6 -48 11 -82 11 -38 0 -59 4 -55 10 3 6 21 10 38 11 18 0 68 9 112 19 96 21 106 23 80 9z m1228 -11 c53 -12 97 -25 97 -28 0 -4 -18 -12 -41 -19 -38 -11 -44 -10 -77 12 -21 14 -50 32 -67 41 -41 21 -26 20 88 -6z m727 -1439 c-76 -226 -253 -396 -500 -479 -34 -12 -64 -19 -66 -18 -2 2 32 25 75 51 92 55 120 81 72 67 -41 -12 -39 3 4 30 39 24 89 84 104 124 8 20 17 26 41 26 75 0 135 50 227 188 31 46 57 81 60 79 2 -3 -6 -33 -17 -68z m-2371 -339 c140 -37 195 -62 285 -129 73 -54 116 -71 183 -71 23 0 45 -5 49 -11 5 -8 -18 -10 -82 -7 -97 5 -250 50 -361 107 -91 46 -231 141 -208 141 11 0 72 -14 134 -30z"/>
    <path d="M4372 4358 c-5 -7 -29 -53 -51 -101 -34 -73 -56 -104 -131 -181 -57 -58 -90 -101 -90 -114 0 -15 20 -37 59 -68 67 -52 98 -92 156 -203 33 -63 44 -76 65 -76 20 0 32 14 70 82 64 118 106 163 189 207 95 50 95 70 -4 107 -102 37 -138 89 -197 279 -23 75 -43 95 -66 68z"/>
    <path d="M3332 4272 c-9 -9 -30 -44 -46 -76 -32 -64 -85 -122 -161 -176 -31 -22 -50 -43 -50 -55 0 -13 25 -38 69 -71 64 -48 82 -69 161 -196 11 -18 32 -39 48 -48 24 -13 30 -13 54 0 15 8 43 44 63 79 54 95 92 134 164 172 36 19 66 40 66 48 0 7 -42 55 -93 105 -52 50 -115 124 -140 164 -43 67 -49 72 -82 72 -20 0 -42 -7 -53 -18z m-6 -285 c-28 -18 -70 -57 -65 -60 2 -2 26 -18 52 -36 27 -18 46 -35 43 -38 -19 -20 -154 46 -176 86 -19 36 28 58 125 59 35 1 38 -1 21 -11z"/>
    <path d="M3844 3761 c-92 -24 -171 -87 -210 -169 -23 -48 -16 -171 13 -227 47 -89 139 -145 254 -153 59 -4 72 -1 115 22 74 41 147 143 160 224 13 85 -44 206 -128 275 -31 25 -47 30 -105 33 -37 2 -82 0 -99 -5z m-49 -351 c38 -21 81 -42 98 -46 16 -3 37 -13 46 -23 10 -9 26 -22 37 -29 16 -11 11 -12 -36 -8 -30 3 -73 10 -95 17 -44 12 -125 86 -125 113 0 9 2 16 4 16 2 0 34 -18 71 -40z"/>
  </g>
</svg>