<svg version="1.0" xmlns="http://www.w3.org/2000/svg" width="800.000000" height="800.000000" viewBox="0 0 800.000000 800.000000" preserveAspectRatio="xMidYMid meet">
  <metadata>
    <rdf:RDF xmlns:rdf="http://www.w3.org/1999/02/22-rdf-syntax-ns#" xmlns:rdfs="http://www.w3.org/2000/01/rdf-schema#" xmlns:dc="http://purl.org/dc/elements/1.1/">
      <rdf:Description dc:format="image/svg+xml" dc:Label="1" dc:ContentProducer="001191330110MACRLGPT8B00000" dc:ProduceID="448333132" dc:ReservedCode1="Th7WLPVt/53Qa0dc4WqpPgz542raWBiGSH00aAl6z6I=" dc:ContentPropagator="001191330110MACRLGPT8B00000" dc:PropagateID="448333132" dc:ReservedCode2="Th7WLPVt/53Qa0dc4WqpPgz542raWBiGSH00aAl6z6I="/>
    </rdf:RDF>
  </metadata>
  <g transform="translate(-139.837201,906.811338) scale(0.133258,-0.133258)" fill="#000000" stroke="none">
    <path d="M3185 5369 c-114 -4 -231 -14 -273 -22 -165 -36 -245 -120 -315 -327 -79 -236 -86 -390 -63 -1310 27 -1069 29 -1094 95 -1235 78 -167 170 -222 411 -245 99 -9 1609 5 1945 19 187 8 242 13 295 30 122 39 221 141 260 268 18 59 20 114 30 721 13 882 13 1722 -1 1797 -28 154 -122 241 -299 279 -144 30 -1498 47 -2085 25z m1705 -129 c349 -9 408 -17 482 -66 21 -13 48 -43 60 -67 l23 -42 -2 -990 c-3 -1179 -10 -1449 -40 -1516 -28 -63 -78 -116 -137 -146 -49 -26 -59 -27 -296 -34 -135 -4 -326 -13 -425 -18 -234 -14 -1467 -14 -1560 -1 -120 18 -147 28 -195 79 -86 88 -107 162 -120 411 -14 278 -35 1206 -35 1540 0 335 11 432 71 605 79 231 108 242 684 255 381 9 936 5 1490 -10z"/>
    <path d="M3145 5151 c-109 -8 -181 -41 -270 -123 -62 -56 -94 -113 -95 -165 0 -47 16 -49 24 -3 10 66 64 116 150 141 68 19 96 31 159 65 22 12 31 13 43 3 12 -10 19 -8 39 11 26 24 87 38 178 39 26 1 47 5 47 10 0 20 -146 32 -275 22z"/>
    <path d="M5202 5099 c-16 -6 -22 -15 -20 -30 5 -32 31 -45 62 -31 31 14 34 47 7 62 -23 12 -19 12 -49 -1z"/>
    <path d="M5296 5005 c-10 -11 -13 -22 -7 -38 7 -17 16 -22 47 -22 31 0 41 5 51 25 8 17 9 28 1 37 -14 18 -73 16 -92 -2z"/>
    <path d="M3490 4700 c-47 -4 -123 -9 -170 -9 -47 -1 -95 -4 -107 -7 -56 -15 -78 -151 -65 -405 10 -184 19 -222 63 -253 19 -13 57 -14 259 -9 l238 6 13 -24 c9 -15 14 -58 14 -119 0 -130 -9 -144 -107 -159 -100 -16 -118 -22 -140 -52 -33 -45 -39 -96 -45 -401 -6 -326 -2 -363 47 -416 59 -65 218 -70 269 -8 9 10 16 56 21 123 5 85 10 108 24 119 29 20 116 27 295 22 173 -5 219 -16 239 -56 5 -9 12 -50 14 -90 9 -120 45 -151 184 -160 80 -5 83 -4 108 23 39 41 45 79 57 328 11 230 4 399 -22 491 -16 58 -56 93 -115 101 -91 11 -108 19 -127 55 -14 28 -17 52 -14 117 2 46 7 86 11 90 4 5 107 8 229 8 157 0 228 4 244 12 28 17 61 86 72 154 5 30 12 128 15 219 6 199 -2 243 -54 278 -35 24 -38 24 -240 20 -233 -5 -274 -15 -325 -82 -27 -36 -28 -43 -36 -194 -14 -274 -22 -304 -87 -322 -46 -12 -397 1 -412 16 -19 19 -30 120 -30 279 0 303 -31 332 -320 305z m-104 -65 c18 -13 16 -14 -23 -15 -31 0 -43 -4 -43 -14 0 -10 -9 -14 -27 -13 -24 2 -28 -2 -28 -25 1 -32 -11 -35 -43 -12 -26 18 -28 50 -5 76 21 23 139 26 169 3z m1511 -85 c2 -75 0 -90 -9 -72 -6 12 -17 22 -25 22 -8 0 -13 12 -13 30 0 34 -3 35 -50 19 -27 -10 -34 -9 -42 4 -10 18 -67 37 -113 37 -23 1 -26 3 -14 10 31 18 200 49 249 46 12 -1 15 -20 17 -96z"/>
    <path d="M2785 2856 c-4 -32 -6 -108 -3 -169 5 -130 24 -178 90 -223 81 -56 187 -64 528 -40 185 13 185 14 20 40 -172 27 -395 68 -400 73 -9 8 32 32 67 39 41 8 44 24 4 24 -66 0 -91 12 -111 51 -16 31 -27 39 -57 44 -59 10 -63 13 -63 42 0 15 -11 48 -25 72 -14 23 -25 50 -25 60 0 9 -4 22 -9 30 -6 10 -11 -4 -16 -43z"/>
    <path d="M5314 2599 c-24 -27 -87 -59 -116 -59 -20 -1 -21 -2 -5 -11 44 -25 10 -44 -113 -62 l-25 -3 30 -13 c39 -17 101 -2 159 38 51 36 61 47 81 94 18 42 16 45 -11 16z"/>
  </g>
</svg>