<svg version="1.0" xmlns="http://www.w3.org/2000/svg" width="800.000000" height="800.000000" viewBox="0 0 800.000000 800.000000" preserveAspectRatio="xMidYMid meet">
  <metadata>
    <rdf:RDF xmlns:rdf="http://www.w3.org/1999/02/22-rdf-syntax-ns#" xmlns:rdfs="http://www.w3.org/2000/01/rdf-schema#" xmlns:dc="http://purl.org/dc/elements/1.1/">
      <rdf:Description dc:format="image/svg+xml" dc:Label="1" dc:ContentProducer="001191330110MACRLGPT8B00000" dc:ProduceID="448333130" dc:ReservedCode1="Z0V8F1wvWsceBQld/XOhCnkQKVqdtySEnZfI8tNO/DQ=" dc:ContentPropagator="001191330110MACRLGPT8B00000" dc:PropagateID="448333130" dc:ReservedCode2="Z0V8F1wvWsceBQld/XOhCnkQKVqdtySEnZfI8tNO/DQ="/>
    </rdf:RDF>
  </metadata>
  <g transform="translate(10.337356,761.583507) scale(0.092787,-0.092787)" fill="#000000" stroke="none">
    <path d="M4981 6141 c-11 -11 -26 -34 -35 -53 -24 -52 -126 -335 -151 -418 -41 -136 -56 -347 -30 -413 7 -17 2 -17 -61 -10 -129 15 -301 8 -399 -17 -290 -73 -477 -202 -675 -465 -72 -97 -118 -143 -154 -155 -17 -5 -80 -19 -139 -30 -533 -102 -979 -468 -1161 -951 -37 -100 -73 -244 -86 -354 -19 -150 -8 -405 24 -531 68 -272 186 -477 390 -679 218 -217 450 -344 736 -406 153 -33 429 -34 582 -1 273 58 515 189 714 387 125 123 188 207 255 337 65 128 111 264 145 431 14 73 35 156 46 186 21 55 42 79 280 310 165 160 242 276 302 454 120 353 74 761 -117 1039 -43 62 -45 67 -28 82 60 54 263 69 386 27 82 -27 259 -118 330 -169 66 -47 110 -49 140 -5 28 40 49 140 43 198 -17 147 -200 317 -413 382 -84 25 -418 27 -484 1 l-43 -16 5 101 c8 176 -33 353 -120 517 -101 190 -220 283 -282 221z m-344 -1011 c134 -17 232 -46 348 -105 254 -128 418 -320 487 -570 19 -70 22 -105 22 -280 0 -173 -3 -212 -22 -289 -55 -220 -115 -312 -368 -561 -231 -228 -237 -238 -289 -486 -19 -90 -48 -201 -65 -248 -149 -411 -509 -718 -952 -812 -134 -29 -371 -31 -498 -6 -360 72 -651 259 -861 553 -160 222 -239 475 -239 758 0 189 44 399 119 574 136 313 418 581 761 721 96 39 112 43 317 86 170 36 204 59 320 215 94 126 246 268 349 326 105 60 225 102 339 120 103 16 133 16 232 4z m1385 -31 c92 -54 176 -118 183 -140 9 -28 -2 -69 -19 -69 -8 0 -36 26 -62 58 -26 31 -75 85 -108 120 -33 34 -57 62 -54 62 4 0 31 -14 60 -31z"/>
    <path d="M4310 4996 c-74 -17 -138 -47 -176 -82 -17 -16 -63 -47 -103 -68 -39 -22 -77 -46 -84 -54 -15 -18 27 -12 198 29 90 22 144 29 217 29 80 0 98 3 98 15 0 8 5 15 12 15 6 0 3 6 -7 14 -17 12 -16 14 16 19 19 4 61 0 94 -7 l60 -14 -33 28 c-37 31 -37 30 36 45 17 4 32 10 32 14 0 28 -256 40 -360 17z"/>
    <path d="M4000 4761 c-58 -19 -142 -59 -175 -85 -27 -21 -15 -20 44 4 93 36 215 53 350 47 133 -5 138 0 32 33 -77 24 -175 25 -251 1z"/>
    <path d="M5234 4565 c3 -11 16 -56 28 -100 21 -74 23 -99 23 -331 l0 -251 -63 -125 c-73 -145 -167 -270 -237 -313 -72 -45 -34 -43 60 4 91 45 186 135 226 214 35 68 67 172 80 259 15 102 6 342 -15 420 -19 66 -72 194 -93 223 l-15 20 6 -20z"/>
    <path d="M2820 4128 c-103 -57 -165 -104 -233 -177 -100 -109 -99 -133 2 -36 97 95 204 179 285 226 28 16 44 29 36 29 -8 0 -49 -19 -90 -42z"/>
    <path d="M2673 3724 c-45 -23 -126 -111 -158 -173 -49 -98 -67 -190 -72 -377 -4 -137 -2 -188 12 -255 40 -201 165 -421 335 -589 178 -177 486 -335 680 -347 98 -6 251 25 384 78 66 27 108 38 124 34 16 -4 21 -2 17 5 -5 7 3 9 22 4 33 -8 103 -45 103 -54 0 -21 -50 -46 -160 -79 -32 -10 -30 -10 25 -7 172 8 382 171 486 378 42 83 36 82 -22 -3 -61 -90 -147 -179 -212 -221 l-48 -31 -74 18 c-41 9 -79 23 -84 29 -7 8 -5 26 4 53 14 39 12 62 -10 116 -15 37 -88 66 -245 97 -453 90 -648 202 -804 459 -103 170 -125 255 -136 530 -10 224 -21 287 -61 329 -23 26 -61 28 -106 6z m293 -1356 c28 -29 61 -68 74 -87 l24 -34 -29 7 c-58 15 -145 105 -145 150 0 29 25 17 76 -36z m809 -124 c47 -7 48 -8 20 -15 -16 -3 -66 -7 -110 -7 -44 0 -93 4 -110 7 -32 8 -35 7 85 24 14 2 34 2 45 1 11 -2 43 -6 70 -10z"/>
    <path d="M3602 1965 c-39 -6 -75 -14 -78 -17 -21 -22 331 -49 412 -33 36 7 37 8 14 15 -14 5 -43 8 -65 9 -23 1 -58 10 -80 21 -44 23 -92 24 -203 5z"/>
  </g>
</svg>