<svg version="1.0" xmlns="http://www.w3.org/2000/svg" width="800.000000" height="800.000000" viewBox="0 0 800.000000 800.000000" preserveAspectRatio="xMidYMid meet">
  <metadata>
    <rdf:RDF xmlns:rdf="http://www.w3.org/1999/02/22-rdf-syntax-ns#" xmlns:rdfs="http://www.w3.org/2000/01/rdf-schema#" xmlns:dc="http://purl.org/dc/elements/1.1/">
      <rdf:Description dc:format="image/svg+xml" dc:Label="1" dc:ContentProducer="001191330110MACRLGPT8B00000" dc:ProduceID="448343505" dc:ReservedCode1="5kCqCF2CTAoumVyXUoxIF9XfVRrYH7+06fatwG88g7Y=" dc:ContentPropagator="001191330110MACRLGPT8B00000" dc:PropagateID="448343505" dc:ReservedCode2="5kCqCF2CTAoumVyXUoxIF9XfVRrYH7+06fatwG88g7Y="/>
    </rdf:RDF>
  </metadata>
  <g transform="translate(-48.899662,841.401216) scale(0.119134,-0.119134)" fill="#000000" stroke="none">
    <path d="M3285 5459 c-481 -9 -774 -25 -875 -45 -183 -38 -283 -141 -343 -353 -22 -76 -22 -79 -20 -946 2 -896 16 -1617 32 -1740 31 -225 124 -339 308 -378 126 -27 229 -35 622 -48 463 -16 1117 -3 2016 40 245 12 301 34 375 145 84 124 90 176 90 856 0 658 -15 1211 -36 1320 -19 100 -66 193 -131 258 -60 61 -121 91 -197 99 l-53 6 -6 186 c-6 198 -17 282 -47 367 -26 75 -54 111 -121 154 -68 44 -155 68 -293 80 -117 11 -747 10 -1321 -1z m1359 -130 c152 -20 241 -75 265 -166 31 -115 48 -485 61 -1338 6 -357 13 -825 17 -1040 7 -425 1 -496 -43 -566 -62 -99 -137 -114 -620 -128 -1091 -32 -1734 -19 -1937 39 -103 30 -150 90 -173 221 -26 151 -57 2439 -35 2594 24 172 82 279 174 320 73 33 185 43 637 56 1042 28 1479 30 1654 8z m644 -904 c40 -34 56 -79 36 -100 -9 -8 -22 -15 -30 -15 -8 0 -38 -12 -67 -26 l-52 -26 39 40 c21 22 49 43 62 46 28 7 32 37 8 57 -13 10 -25 9 -74 -8 -58 -21 -70 -21 -70 3 0 13 75 53 102 54 9 0 30 -11 46 -25z m-12 -2168 c5 -15 12 -18 35 -13 35 7 37 -4 7 -38 -28 -32 -79 -44 -99 -24 -8 8 -23 20 -34 26 -19 12 -19 12 5 11 51 -3 54 2 18 23 -21 12 -38 25 -38 29 0 5 22 7 50 7 40 -1 51 -5 56 -21z m39 3 c-3 -5 -10 -10 -16 -10 -5 0 -9 5 -9 10 0 6 7 10 16 10 8 0 12 -4 9 -10z"/>
    <path d="M4516 5221 c-13 -5 7 -13 69 -29 73 -18 94 -28 133 -64 61 -55 89 -96 104 -152 21 -79 31 -53 24 61 -12 173 -34 193 -208 192 -57 0 -111 -4 -122 -8z"/>
    <path d="M2630 5150 c0 -33 53 -80 89 -80 33 0 76 34 66 50 -4 6 -24 7 -46 4 -32 -5 -44 -3 -62 13 -37 33 -47 36 -47 13z"/>
    <path d="M2338 5144 c-15 -8 -35 -29 -44 -46 -17 -33 -32 -158 -20 -158 4 0 25 18 46 40 34 35 55 46 83 41 4 0 7 6 7 15 0 14 7 15 44 10 27 -4 47 -3 51 4 3 5 19 10 34 10 15 0 36 6 46 14 18 13 18 15 -17 50 -36 36 -37 36 -119 36 -55 -1 -94 -6 -111 -16z"/>
    <path d="M4596 5112 c-8 -14 -2 -17 83 -46 54 -18 71 -21 71 -11 0 36 -136 86 -154 57z"/>
    <path d="M3675 5010 c-71 -4 -308 -13 -525 -19 -436 -13 -451 -15 -535 -79 -65 -49 -112 -135 -132 -245 -21 -114 -24 -783 -4 -872 39 -174 140 -271 323 -309 124 -26 263 -30 572 -18 160 7 431 16 601 20 288 8 314 10 370 32 166 64 255 177 297 378 30 143 31 547 1 707 -27 145 -54 213 -109 274 -56 62 -161 116 -254 131 -71 11 -400 11 -605 0z m561 -141 c25 -12 51 -18 63 -14 17 5 21 2 21 -19 0 -44 52 -75 105 -62 20 5 25 3 25 -12 0 -20 -18 -42 -35 -42 -7 0 -48 26 -93 58 -44 31 -105 72 -134 90 -41 26 -47 32 -24 27 15 -3 48 -15 72 -26z m-1231 3 l-39 -18 22 -16 c27 -18 19 -23 -54 -32 -35 -5 -43 -4 -28 3 35 15 37 29 7 45 l-28 14 40 7 c22 3 47 8 55 10 8 1 26 3 40 4 21 0 18 -3 -15 -17z m600 -342 c85 -35 246 -134 283 -173 12 -12 22 -36 24 -53 5 -66 -96 -183 -225 -260 -34 -21 -75 -48 -92 -60 -38 -28 -122 -69 -157 -78 -40 -9 -106 20 -124 56 -23 44 -29 130 -14 208 10 54 10 90 1 178 -21 189 4 226 149 219 56 -3 95 -12 155 -37z m-790 -860 c110 -13 118 -16 80 -25 -60 -14 -59 -19 5 -28 36 -5 99 -18 140 -28 l75 -18 -50 0 c-91 0 -259 17 -304 30 -29 9 -53 27 -74 53 l-31 39 35 -6 c18 -4 75 -11 124 -17z"/>
    <path d="M3366 4506 c-9 -14 -16 -30 -16 -36 0 -13 50 -2 71 16 8 8 23 14 33 14 36 0 8 25 -31 28 -34 3 -43 -1 -57 -22z"/>
    <path d="M3640 4440 c0 -5 27 -23 60 -40 86 -43 128 -39 78 8 -39 36 -138 59 -138 32z"/>
    <path d="M3841 4238 c-13 -17 -46 -46 -73 -66 -27 -20 -44 -38 -39 -40 18 -6 98 56 121 93 28 45 23 52 -9 13z"/>
    <path d="M3333 4023 c-3 -9 0 -28 8 -42 20 -36 59 -39 95 -7 30 26 26 30 -23 26 -12 -1 -30 8 -40 19 -21 25 -32 26 -40 4z"/>
    <path d="M2858 3261 l-266 -6 -39 -31 c-24 -19 -43 -46 -51 -73 -13 -38 -12 -45 10 -89 35 -72 76 -90 235 -103 189 -16 1714 -7 1768 11 22 7 57 29 77 50 32 31 38 45 38 78 0 58 -31 104 -93 138 l-52 29 -680 1 c-374 0 -800 -2 -947 -5z m1482 -172 c25 -1 17 -4 -28 -11 -35 -6 -66 -7 -70 -3 -11 10 21 26 43 20 11 -2 36 -5 55 -6z"/>
    <path d="M2612 2759 c-69 -27 -112 -85 -112 -152 0 -94 65 -171 175 -206 57 -19 95 -20 910 -23 l850 -2 66 31 c76 35 113 77 128 143 13 60 5 92 -37 141 -72 84 1 79 -1037 78 -550 0 -929 -4 -943 -10z m232 -305 c25 -10 0 -34 -35 -34 -31 0 -36 9 -17 28 13 13 28 15 52 6z"/>
    <path d="M4860 2436 c-33 -90 -67 -119 -177 -146 -45 -11 -103 -30 -130 -41 -29 -12 -87 -24 -148 -29 -91 -9 -206 -24 -355 -47 -104 -16 305 -21 505 -6 204 15 242 23 284 59 41 34 53 81 49 189 l-3 90 -25 -69z"/>
    <path d="M2272 2416 c7 -79 47 -163 93 -195 38 -25 145 -44 228 -39 l52 3 -78 19 c-43 10 -75 22 -70 26 4 5 53 11 108 14 55 3 120 9 145 14 l45 9 -51 2 c-67 1 -212 27 -294 51 -74 22 -115 56 -146 119 -10 22 -23 41 -28 41 -5 0 -6 -29 -4 -64z"/>
  </g>
</svg>