<svg version="1.0" xmlns="http://www.w3.org/2000/svg" width="800.000000" height="800.000000" viewBox="0 0 800.000000 800.000000" preserveAspectRatio="xMidYMid meet">
  <metadata>
    <rdf:RDF xmlns:rdf="http://www.w3.org/1999/02/22-rdf-syntax-ns#" xmlns:rdfs="http://www.w3.org/2000/01/rdf-schema#" xmlns:dc="http://purl.org/dc/elements/1.1/">
      <rdf:Description dc:format="image/svg+xml" dc:Label="1" dc:ContentProducer="001191330110MACRLGPT8B00000" dc:ProduceID="448339196" dc:ReservedCode1="1ijq1QodX3nYlC02oOmn+bLfPd+UMjEYRARh6zouibI=" dc:ContentPropagator="001191330110MACRLGPT8B00000" dc:PropagateID="448339196" dc:ReservedCode2="1ijq1QodX3nYlC02oOmn+bLfPd+UMjEYRARh6zouibI="/>
    </rdf:RDF>
  </metadata>
  <g transform="translate(-97.545903,854.636203) scale(0.122244,-0.122244)" fill="#000000" stroke="none">
    <path d="M3605 5430 c-205 -39 -320 -76 -467 -153 -149 -77 -223 -133 -340 -256 -107 -112 -180 -214 -237 -327 -52 -105 -75 -178 -102 -315 -18 -96 -21 -136 -16 -259 3 -80 12 -176 21 -215 50 -215 72 -278 157 -442 72 -140 122 -207 240 -328 79 -80 115 -126 134 -168 l27 -58 -37 -36 c-51 -49 -75 -105 -75 -176 0 -94 59 -178 143 -206 32 -11 37 -18 56 -79 54 -179 180 -301 384 -375 70 -25 101 -30 213 -34 151 -6 273 7 345 38 141 61 287 232 333 390 14 46 22 58 50 72 52 24 103 74 127 123 17 37 21 57 17 108 -6 64 -39 134 -74 154 -16 9 -16 14 6 68 29 73 49 102 119 179 217 237 365 517 418 790 22 114 21 316 -1 445 -66 376 -313 735 -618 899 -99 54 -250 108 -383 137 -123 28 -354 40 -440 24z m360 -135 c100 -16 272 -70 368 -115 328 -158 581 -565 603 -975 12 -205 -22 -375 -111 -561 -65 -138 -139 -251 -247 -377 -138 -162 -157 -189 -185 -266 l-27 -74 -475 8 c-262 5 -534 10 -606 11 -164 3 -155 2 -155 17 0 6 -13 40 -29 74 -22 46 -53 84 -126 155 -338 328 -491 853 -369 1275 81 285 323 567 609 711 253 127 467 160 750 117z m-45 -2484 c519 -9 511 -7 531 -68 13 -41 -11 -96 -49 -112 -127 -51 -580 -64 -1112 -32 -165 10 -223 23 -246 59 -33 51 5 132 70 151 39 11 206 12 806 2z m-515 -360 c17 -7 13 -10 -22 -20 -49 -13 -62 -41 -44 -91 16 -48 47 -86 112 -137 34 -26 56 -49 50 -51 -20 -7 -133 62 -166 101 -52 60 -89 138 -82 169 6 21 14 28 40 31 55 7 91 6 112 -2z m715 -204 c0 -2 -12 -14 -27 -28 l-28 -24 24 28 c23 25 31 32 31 24z"/>
    <path d="M3295 5108 c-16 -6 -47 -22 -67 -35 -21 -12 -41 -23 -45 -23 -13 0 -142 -119 -154 -142 -9 -17 -6 -17 27 6 21 14 61 31 89 37 42 9 51 15 51 32 -1 25 37 49 146 93 43 17 75 34 71 38 -10 9 -84 6 -118 -6z"/>
    <path d="M3450 4869 c-204 -23 -303 -73 -344 -171 -19 -45 -22 -320 -5 -383 15 -53 73 -110 129 -125 27 -7 76 -10 123 -7 162 11 257 97 257 234 0 39 2 39 143 48 l107 7 0 -131 c0 -118 -2 -133 -20 -151 -11 -11 -28 -20 -37 -20 -10 0 -55 -4 -100 -10 -133 -15 -222 -70 -269 -166 -25 -50 -27 -66 -27 -168 0 -173 23 -203 169 -215 78 -6 84 -8 52 -15 -46 -10 -112 -66 -138 -116 -30 -58 -35 -136 -15 -206 22 -77 96 -153 170 -175 117 -33 252 -9 319 57 69 69 91 198 49 279 -52 98 -153 160 -288 175 -48 6 -33 8 73 9 196 2 230 22 240 147 6 81 18 90 127 99 142 12 191 40 222 128 15 45 18 83 17 272 -2 336 -26 461 -105 537 -69 66 -102 72 -459 74 -173 1 -349 -2 -390 -7z m30 -139 c-80 -29 -139 -61 -160 -87 -22 -28 -32 -106 -20 -158 8 -35 6 -43 -17 -73 -14 -18 -26 -44 -27 -57 -1 -17 -4 -21 -13 -13 -9 7 -13 51 -13 153 l0 143 34 30 c33 29 99 54 191 72 71 14 82 10 25 -10z m-4 -354 c-8 -32 -44 -66 -69 -66 -19 0 -17 4 15 30 25 21 40 43 45 68 6 30 8 32 11 13 2 -12 1 -33 -2 -45z m811 -97 c7 -165 0 -227 -27 -256 -19 -22 -128 -47 -155 -36 -18 6 -20 23 -4 23 29 0 101 57 118 95 21 43 41 182 41 280 0 40 3 56 10 49 6 -6 13 -76 17 -155z m-550 -257 c-21 -13 -27 -23 -24 -40 4 -19 0 -23 -17 -21 -25 3 -61 -15 -98 -48 -19 -18 -30 -43 -39 -89 -18 -90 -33 -81 -26 16 6 95 29 139 86 164 42 19 94 33 126 35 17 0 15 -3 -8 -17z m46 -544 c23 -7 61 -31 84 -54 39 -37 43 -45 43 -90 0 -84 -47 -124 -145 -124 -99 0 -164 46 -172 124 -9 79 12 119 74 141 48 18 66 18 116 3z"/>
    <path d="M4646 3566 c-63 -112 -231 -306 -266 -306 -8 0 -9 18 -5 58 6 55 6 56 -9 27 -30 -62 -56 -128 -56 -144 0 -9 -28 -45 -62 -80 l-63 -63 40 7 c61 10 98 32 169 96 79 73 153 165 202 250 39 68 98 209 91 216 -3 2 -21 -25 -41 -61z"/>
    <path d="M3140 2753 c-52 -10 -66 -46 -30 -78 22 -20 103 -31 145 -21 30 8 24 26 -8 26 -12 0 -29 5 -37 10 -13 8 -12 11 5 24 11 8 37 18 57 21 68 12 52 25 -29 24 -43 -1 -89 -4 -103 -6z"/>
    <path d="M4288 2730 c12 -5 22 -16 22 -24 0 -16 -12 -21 -75 -32 -32 -6 -36 -9 -20 -15 61 -24 175 3 175 40 0 27 -29 41 -82 40 -36 0 -39 -2 -20 -9z"/>
    <path d="M5291 5158 c-5 -13 -17 -45 -27 -71 -27 -74 -89 -136 -194 -192 -74 -40 -90 -52 -88 -69 2 -14 44 -49 123 -104 140 -97 198 -150 226 -209 11 -24 26 -43 33 -43 6 0 20 25 31 55 21 63 98 143 227 235 42 30 77 60 77 67 1 17 -35 49 -94 83 -81 47 -166 121 -223 195 -30 39 -60 71 -68 73 -8 2 -18 -7 -23 -20z"/>
  </g>
</svg>