<svg version="1.0" xmlns="http://www.w3.org/2000/svg" width="800.000000" height="800.000000" viewBox="0 0 800.000000 800.000000" preserveAspectRatio="xMidYMid meet">
  <metadata>
    <rdf:RDF xmlns:rdf="http://www.w3.org/1999/02/22-rdf-syntax-ns#" xmlns:rdfs="http://www.w3.org/2000/01/rdf-schema#" xmlns:dc="http://purl.org/dc/elements/1.1/">
      <rdf:Description dc:format="image/svg+xml" dc:Label="1" dc:ContentProducer="001191330110MACRLGPT8B00000" dc:ProduceID="448333137" dc:ReservedCode1="5RYhQj89P89sxSPYNe47+xmA5ybItpu64dVNrWkwvdQ=" dc:ContentPropagator="001191330110MACRLGPT8B00000" dc:PropagateID="448333137" dc:ReservedCode2="5RYhQj89P89sxSPYNe47+xmA5ybItpu64dVNrWkwvdQ="/>
    </rdf:RDF>
  </metadata>
  <g transform="translate(-25.080237,750.877735) scale(0.102520,-0.102520)" fill="#000000" stroke="none">
    <path d="M3765 5153 c-666 -14 -1182 -34 -1239 -49 -152 -39 -279 -165 -326 -324 -20 -67 -51 -363 -70 -660 -5 -91 -15 -235 -21 -320 -16 -243 -14 -696 4 -920 43 -505 68 -767 79 -809 43 -177 185 -326 351 -368 68 -17 143 -18 1407 -15 1468 3 1717 9 1821 41 173 54 313 206 354 383 13 58 24 178 57 638 8 110 13 373 13 705 0 458 -4 568 -23 810 -38 472 -47 520 -124 635 -49 73 -99 118 -187 164 -171 89 -260 96 -1196 94 -423 -1 -828 -4 -900 -5z m1575 -123 c269 -10 356 -23 456 -71 96 -45 175 -141 203 -244 11 -42 36 -272 47 -439 l7 -98 -39 6 c-74 12 -430 26 -674 26 l-245 0 -91 94 c-82 85 -246 313 -294 409 -34 68 -83 94 -123 65 -9 -7 -36 -49 -59 -92 -42 -78 -68 -105 -68 -70 0 30 -52 94 -94 117 -37 20 -56 22 -206 22 -189 0 -238 -12 -289 -71 -42 -47 -66 -133 -53 -185 13 -52 47 -100 90 -130 34 -23 42 -24 211 -24 l176 0 -62 -58 c-115 -108 -94 -100 -292 -108 -333 -13 -1166 -22 -1423 -14 l-258 7 0 42 c0 63 28 372 41 451 25 151 85 245 194 299 54 28 65 29 243 37 165 6 1003 26 1387 32 379 6 996 5 1215 -3z m-639 -565 c66 -108 63 -129 -4 -30 l-27 40 0 -30 -1 -30 -22 28 c-13 15 -28 27 -34 27 -7 0 -21 -20 -32 -44 -19 -44 -77 -116 -93 -116 -4 0 7 21 26 48 18 26 50 80 70 120 26 51 42 72 53 70 9 -2 38 -39 64 -83z m1044 -386 c284 -14 317 -19 321 -44 2 -11 6 -170 10 -353 7 -313 -10 -948 -25 -969 -7 -9 -1996 -1 -2005 8 -3 3 10 21 29 39 20 20 35 44 35 57 0 42 -39 103 -113 174 -103 100 -288 239 -319 239 -28 0 -59 -31 -112 -115 -21 -33 -97 -117 -168 -187 -125 -123 -130 -129 -124 -161 l6 -33 -512 4 c-282 2 -515 5 -517 7 -1 2 -9 82 -17 177 -21 274 -16 754 12 1058 l6 65 847 0 847 0 -40 -31 c-23 -17 -89 -63 -147 -102 -119 -81 -141 -110 -119 -162 16 -40 50 -64 225 -160 179 -98 249 -147 332 -231 73 -74 123 -140 184 -239 148 -241 197 -300 247 -300 47 1 63 20 126 148 34 71 122 217 160 267 111 145 201 225 366 322 242 142 278 179 267 270 -6 57 -25 76 -169 174 -65 44 -118 82 -118 84 0 9 272 5 485 -6z m-1584 -57 c-21 -30 -101 -101 -160 -142 -31 -21 -32 -24 -15 -31 14 -6 11 -8 -15 -8 -33 -1 -34 -2 -15 -16 10 -8 28 -15 38 -15 29 0 10 -14 -37 -26 -23 -6 -41 -16 -40 -22 2 -6 -6 -16 -17 -22 -23 -12 -76 8 -104 38 -14 16 -8 21 77 69 51 28 139 85 197 127 58 42 106 76 108 76 2 0 -6 -13 -17 -28z m780 -569 c-100 -102 -200 -241 -267 -373 -21 -41 -43 -78 -49 -82 -5 -4 -25 17 -45 46 -19 30 -60 91 -91 137 -75 114 -102 159 -97 164 2 3 20 -6 38 -20 19 -14 39 -25 45 -25 6 0 17 -15 23 -34 7 -19 19 -40 27 -46 13 -10 15 -8 15 11 0 25 16 57 23 49 2 -3 11 -25 19 -50 8 -25 18 -45 23 -45 5 0 14 24 20 53 14 62 35 91 35 50 0 -44 16 -41 44 7 30 51 78 100 151 156 47 35 159 99 174 99 4 0 -36 -44 -88 -97z m-1202 -430 l33 -28 -42 1 c-37 1 -47 -4 -77 -37 -19 -21 -43 -41 -53 -44 -26 -8 -21 -41 10 -56 l25 -11 -22 -11 c-25 -11 -30 -36 -10 -56 10 -11 3 -13 -41 -8 -51 6 -53 5 -46 -15 10 -33 116 -127 143 -128 13 0 42 15 65 34 45 36 214 131 222 124 2 -3 -27 -32 -65 -66 -37 -34 -92 -92 -121 -131 -30 -38 -58 -67 -64 -65 -6 2 -24 24 -39 49 -34 53 -110 124 -187 172 l-54 35 35 32 c19 17 60 54 92 81 31 28 74 74 94 102 21 29 45 53 53 53 9 0 31 -12 49 -27z m-311 -420 c50 -5 55 -8 113 -77 122 -143 145 -160 193 -138 13 6 59 54 102 108 l79 97 970 -1 c534 -1 1012 -2 1063 -2 l92 0 0 -62 c0 -64 -24 -321 -36 -387 -11 -61 -54 -139 -105 -192 -69 -70 -149 -106 -274 -120 -70 -8 -544 -12 -1575 -13 l-1475 -1 -67 33 c-77 38 -135 100 -172 185 -26 58 -39 134 -56 342 -6 72 -13 153 -16 182 -4 44 -3 52 13 57 23 6 1081 -3 1151 -11z"/>
    <path d="M5445 4911 c-17 -8 -16 -10 12 -10 52 -1 194 -50 249 -86 32 -21 57 -47 69 -71 l18 -38 14 47 c19 67 0 111 -61 137 -50 23 -266 37 -301 21z"/>
    <path d="M2574 4860 c-136 -12 -165 -40 -163 -159 0 -31 3 -49 5 -41 36 110 54 128 54 56 0 -49 15 -69 24 -33 14 56 146 167 199 167 10 0 15 5 12 10 -3 6 -14 9 -23 9 -9 -1 -58 -5 -108 -9z"/>
    <path d="M2835 4740 c-75 -10 -103 -21 -143 -55 -79 -66 -92 -177 -31 -268 47 -71 100 -89 282 -95 95 -3 168 -1 201 7 120 27 192 149 155 262 -34 100 -95 136 -252 149 -125 11 -128 11 -212 0z"/>
    <path d="M5272 4739 c-108 -21 -173 -92 -180 -196 -4 -54 -1 -69 22 -107 33 -57 68 -82 142 -101 69 -18 246 -20 327 -4 140 28 207 170 142 298 -30 60 -65 86 -141 106 -63 16 -238 19 -312 4z"/>
    <path d="M5821 3956 l-84 -31 69 -5 c38 -3 78 -11 90 -17 23 -13 39 -60 50 -141 4 -29 8 -51 10 -49 7 7 44 199 44 228 0 57 -54 62 -179 15z"/>
    <path d="M2359 3973 c-38 -10 -53 -127 -24 -183 15 -30 16 -30 98 -29 l82 1 -58 13 c-110 24 -86 46 64 56 61 5 113 10 115 12 2 2 -41 18 -96 36 -55 19 -100 37 -100 42 0 5 71 9 158 10 186 0 178 14 -17 29 -69 5 -144 12 -166 14 -22 2 -47 2 -56 -1z"/>
    <path d="M3797 3247 c13 -72 75 -127 143 -127 29 0 25 27 -5 34 -14 4 -52 33 -85 66 -59 59 -59 59 -53 27z"/>
    <path d="M5945 2972 c-34 -53 -51 -60 -149 -61 -76 -1 -77 -8 -3 -35 87 -32 59 -46 -96 -47 -62 0 -130 -4 -152 -8 -36 -7 -38 -8 -15 -14 83 -22 411 -36 438 -19 18 12 24 66 15 154 l-8 77 -30 -47z"/>
    <path d="M2554 2975 c-4 -9 -2 -21 3 -26 14 -14 45 1 41 20 -4 22 -37 26 -44 6z"/>
    <path d="M2566 2894 c-8 -21 -1 -28 18 -21 9 4 13 13 10 22 -8 20 -20 19 -28 -1z"/>
    <path d="M2410 2880 c-11 -7 -4 -10 25 -10 29 0 36 3 25 10 -8 5 -19 10 -25 10 -5 0 -17 -5 -25 -10z"/>
    <path d="M2670 2880 c0 -5 18 -10 40 -10 22 0 40 5 40 10 0 6 -18 10 -40 10 -22 0 -40 -4 -40 -10z"/>
    <path d="M5010 2521 l-25 -7 28 -7 c37 -10 139 3 112 14 -25 9 -82 9 -115 0z"/>
    <path d="M5640 2521 c0 -5 8 -11 18 -13 26 -7 93 3 86 13 -7 12 -104 12 -104 0z"/>
    <path d="M2824 2339 c-112 -14 -180 -67 -191 -148 -11 -82 43 -157 129 -182 60 -18 348 -18 415 0 157 39 179 247 33 305 -77 30 -257 42 -386 25z"/>
    <path d="M4064 2340 c-108 -9 -160 -38 -193 -103 -46 -93 -3 -188 102 -223 66 -23 356 -27 427 -6 82 24 130 82 130 156 0 60 -25 104 -77 133 -66 37 -243 57 -389 43z"/>
    <path d="M5296 2340 c-93 -12 -149 -34 -185 -75 -78 -89 -31 -221 91 -256 56 -16 326 -16 401 0 122 26 179 128 128 229 -33 65 -117 96 -286 106 -44 2 -111 1 -149 -4z"/>
    <path d="M2406 2262 c-13 -59 -22 -178 -15 -210 9 -43 34 -79 70 -101 30 -18 155 -39 166 -27 3 3 -13 12 -35 21 -36 15 -66 44 -71 68 0 4 -10 16 -21 27 -27 27 -38 55 -65 165 -20 82 -23 87 -29 57z"/>
    <path d="M5830 2045 c-21 -25 -145 -82 -211 -96 -81 -18 -79 -26 5 -34 153 -15 235 29 224 121 -3 26 -4 26 -18 9z"/>
  </g>
</svg>