<svg version="1.0" xmlns="http://www.w3.org/2000/svg" width="800.000000" height="800.000000" viewBox="0 0 800.000000 800.000000" preserveAspectRatio="xMidYMid meet">
  <metadata>
    <rdf:RDF xmlns:rdf="http://www.w3.org/1999/02/22-rdf-syntax-ns#" xmlns:rdfs="http://www.w3.org/2000/01/rdf-schema#" xmlns:dc="http://purl.org/dc/elements/1.1/">
      <rdf:Description dc:format="image/svg+xml" dc:Label="1" dc:ContentProducer="001191330110MACRLGPT8B00000" dc:ProduceID="448333131" dc:ReservedCode1="W0OOyDH2PbcZrZTlaA/NulQDq01X5q7SuZ7Szo020zw=" dc:ContentPropagator="001191330110MACRLGPT8B00000" dc:PropagateID="448333131" dc:ReservedCode2="W0OOyDH2PbcZrZTlaA/NulQDq01X5q7SuZ7Szo020zw="/>
    </rdf:RDF>
  </metadata>
  <g transform="translate(-49.482145,861.255446) scale(0.108994,-0.108994)" fill="#000000" stroke="none">
    <path d="M3925 6153 c-206 -24 -354 -60 -525 -126 -193 -75 -351 -164 -514 -292 -327 -256 -533 -648 -602 -1145 -37 -271 -44 -1264 -9 -1419 36 -162 101 -280 205 -373 48 -43 68 -72 110 -157 61 -124 128 -195 236 -253 110 -58 164 -69 384 -75 178 -5 202 -4 273 16 121 33 186 83 229 176 22 48 23 63 26 315 2 146 -1 481 -7 745 -11 550 -13 564 -87 640 -79 81 -235 103 -534 75 -182 -17 -278 -54 -374 -143 l-48 -46 5 237 c8 374 64 595 205 807 81 122 256 284 382 354 161 88 295 143 451 182 305 76 606 75 879 -2 509 -145 838 -522 921 -1054 13 -79 17 -490 6 -501 -3 -4 -26 10 -50 30 -65 53 -160 93 -252 105 -44 5 -169 12 -277 15 -165 5 -204 3 -244 -11 -59 -20 -120 -81 -174 -173 -75 -129 -75 -121 -75 -870 l0 -665 29 -63 c35 -75 86 -122 165 -154 53 -21 71 -23 301 -23 275 0 297 3 425 68 111 57 225 171 279 282 32 65 55 95 126 162 131 124 180 232 200 448 15 161 -4 1194 -25 1325 -108 687 -534 1231 -1145 1463 -202 77 -403 108 -683 106 -100 -1 -195 -4 -212 -6z m-750 -1973 c-3 -5 -11 -10 -16 -10 -6 0 -36 -12 -67 -27 -83 -39 -138 -94 -163 -165 -24 -65 -38 -62 -40 7 l-1 40 -21 -47 c-14 -30 -28 -48 -39 -48 -15 0 -16 4 -8 26 6 14 10 30 10 35 0 18 -121 -126 -161 -191 -41 -68 -48 -65 -25 10 25 84 58 140 121 208 87 94 179 142 310 161 85 12 107 12 100 1z m350 -22 c34 -18 56 -41 72 -78 14 -30 17 -131 24 -755 5 -443 4 -734 -2 -756 -13 -53 -45 -88 -103 -115 -146 -68 -211 1 -236 251 -30 303 -30 1126 0 1261 13 58 36 98 93 165 41 49 43 50 87 44 25 -4 54 -12 65 -17z m1335 -20 c28 -31 61 -102 77 -167 18 -77 35 -659 31 -1062 -3 -305 -5 -327 -26 -383 -12 -33 -32 -70 -44 -84 -22 -23 -28 -24 -113 -20 -133 6 -194 50 -209 150 -12 83 -9 1280 3 1332 23 96 85 196 150 238 38 26 105 23 131 -4z m393 -3 c117 -30 218 -96 261 -170 34 -57 58 -152 54 -211 l-3 -47 -44 86 c-60 120 -71 127 -71 44 0 -81 -16 -97 -22 -23 -8 102 -79 203 -203 291 -26 19 -50 37 -53 40 -9 9 23 5 81 -10z m-2579 -1227 c9 -43 22 -92 29 -110 l14 -33 8 65 8 65 17 -85 c21 -103 47 -157 107 -221 57 -61 121 -102 207 -133 80 -29 90 -36 50 -36 -135 1 -266 50 -343 129 -91 93 -132 223 -130 409 1 104 2 103 33 -50z m2844 -240 c-28 -84 -111 -168 -209 -212 -65 -30 -195 -54 -210 -39 -7 7 1 13 27 18 21 3 56 14 78 23 39 15 40 16 16 23 -23 6 -24 7 -5 13 11 4 28 12 37 17 10 5 26 9 37 9 10 0 29 8 42 19 l23 18 -37 7 c-49 9 -37 27 16 25 58 -2 108 21 148 70 41 49 52 52 37 9z"/>
    <path d="M3545 2638 c-11 -61 -63 -112 -109 -106 -40 4 -38 -5 6 -28 42 -22 90 -11 122 27 29 34 32 65 14 116 -16 44 -25 42 -33 -9z"/>
    <path d="M4730 4122 c-63 -31 -129 -180 -102 -229 7 -12 12 -8 22 18 14 34 63 89 78 89 5 0 15 -7 22 -15 15 -17 32 -11 24 10 -12 31 8 36 37 9 23 -22 29 -24 29 -11 0 23 -57 147 -67 147 -4 0 -24 -8 -43 -18z"/>
    <path d="M4620 2630 c0 -62 35 -129 76 -146 49 -21 69 -17 103 16 32 32 32 60 1 60 -10 0 -25 3 -34 6 -14 5 -14 9 -1 34 13 26 13 28 -6 33 -11 3 -36 3 -55 0 -27 -5 -40 -1 -59 17 l-25 23 0 -43z"/>
    <path d="M3477 5439 c-31 -5 -84 -19 -117 -32 -63 -26 -200 -120 -246 -169 l-29 -31 25 7 c14 4 60 10 102 13 79 6 99 23 27 23 -21 0 -39 4 -39 8 0 13 82 31 181 38 88 7 92 8 64 20 -16 7 -49 16 -73 20 -40 6 -41 8 -24 20 11 7 66 27 122 43 153 44 156 62 7 40z"/>
  </g>
</svg>