<svg version="1.0" xmlns="http://www.w3.org/2000/svg" width="800.000000" height="800.000000" viewBox="0 0 800.000000 800.000000" preserveAspectRatio="xMidYMid meet">
  <metadata>
    <rdf:RDF xmlns:rdf="http://www.w3.org/1999/02/22-rdf-syntax-ns#" xmlns:rdfs="http://www.w3.org/2000/01/rdf-schema#" xmlns:dc="http://purl.org/dc/elements/1.1/">
      <rdf:Description dc:format="image/svg+xml" dc:Label="1" dc:ContentProducer="001191330110MACRLGPT8B00000" dc:ProduceID="448343507" dc:ReservedCode1="l6TGn9FoCqkYTb+vZwlXo6GtUUfNTF5cuNmlGKcCEA4=" dc:ContentPropagator="001191330110MACRLGPT8B00000" dc:PropagateID="448343507" dc:ReservedCode2="l6TGn9FoCqkYTb+vZwlXo6GtUUfNTF5cuNmlGKcCEA4="/>
    </rdf:RDF>
  </metadata>
  <g transform="translate(21.069830,819.074883) scale(0.102383,-0.102383)" fill="#000000" stroke="none">
    <path d="M4110 6065 c-93 -19 -143 -39 -240 -94 -100 -57 -155 -76 -202 -67 -18 3 -71 29 -118 56 -155 92 -242 115 -404 107 -128 -5 -215 -31 -332 -98 -137 -79 -257 -232 -323 -414 -40 -112 -66 -161 -94 -179 -12 -8 -63 -22 -113 -30 -241 -42 -406 -145 -524 -327 -103 -159 -136 -384 -89 -612 39 -192 126 -379 276 -593 52 -74 107 -161 121 -192 27 -57 27 -57 28 -317 1 -278 10 -351 59 -480 93 -248 321 -488 558 -588 236 -99 485 -125 1212 -128 351 -2 387 0 475 19 180 39 350 129 533 280 138 114 237 249 297 403 46 121 54 188 54 484 1 317 3 325 111 468 232 308 356 614 357 882 1 133 -18 219 -72 330 -47 98 -136 198 -236 266 -92 62 -160 92 -308 135 -136 40 -197 72 -225 117 -11 18 -38 74 -60 125 -98 226 -276 388 -487 442 -88 23 -160 24 -254 5z m-768 -154 c31 -11 94 -42 140 -68 105 -63 136 -73 214 -73 75 0 131 19 241 83 203 117 391 117 559 -1 114 -81 167 -149 237 -303 86 -192 127 -230 305 -285 245 -75 329 -118 426 -218 93 -95 156 -254 156 -394 0 -229 -128 -537 -342 -820 -28 -37 -65 -98 -83 -137 -51 -110 -58 -170 -50 -415 6 -195 5 -224 -14 -312 -34 -162 -103 -281 -237 -410 -149 -143 -296 -232 -470 -284 -116 -34 -304 -40 -804 -25 -483 14 -647 34 -814 99 -214 84 -387 241 -491 450 -69 137 -77 181 -84 512 l-7 295 -29 65 c-16 36 -49 94 -74 130 -24 36 -73 107 -108 157 -116 171 -192 357 -219 538 -36 236 34 447 190 577 82 69 165 106 288 129 155 30 171 36 222 80 54 48 69 75 121 217 43 119 110 228 179 290 57 52 187 117 276 137 81 18 195 13 272 -14z"/>
    <path d="M3100 5661 c-65 -14 -135 -52 -183 -99 -99 -97 -132 -189 -131 -367 1 -102 5 -132 28 -205 50 -153 137 -287 241 -372 79 -63 150 -90 240 -91 94 0 158 28 225 99 98 103 135 233 134 464 0 107 -5 162 -18 209 -42 154 -134 270 -261 331 -60 29 -82 34 -155 36 -47 2 -101 -1 -120 -5z m0 -200 c0 -24 6 -31 33 -41 l32 -13 -35 -8 c-19 -4 -51 -10 -71 -14 -61 -9 -72 -24 -70 -91 2 -81 -6 -114 -30 -114 -22 0 -22 3 8 160 14 70 22 91 49 118 20 20 42 32 58 32 22 0 26 -4 26 -29z"/>
    <path d="M4093 5639 c-171 -54 -297 -210 -339 -418 -22 -112 -15 -320 13 -402 68 -196 209 -299 396 -287 92 6 143 32 222 112 207 209 275 654 132 863 -92 133 -258 185 -424 132z m57 -198 c19 -46 8 -61 -45 -61 -25 0 -45 -1 -45 -3 0 -1 4 -18 10 -37 18 -62 -43 -110 -96 -75 -44 29 -25 102 44 170 64 63 107 65 132 6z"/>
    <path d="M4854 5022 c-170 -59 -353 -269 -434 -499 -85 -240 -13 -452 186 -545 59 -28 72 -30 142 -26 105 6 189 47 293 146 164 154 242 329 242 547 1 280 -200 456 -429 377z"/>
    <path d="M2363 4980 c-162 -34 -273 -181 -273 -361 0 -297 294 -644 566 -666 148 -13 302 65 351 176 22 50 22 198 -1 281 -59 221 -288 500 -455 554 -62 20 -137 27 -188 16z m-7 -267 c3 -16 8 -34 10 -41 2 -8 1 -12 -3 -10 -51 25 -63 34 -63 48 0 40 47 42 56 3z m522 -510 c32 -24 36 -25 47 -10 15 21 25 12 25 -23 0 -36 -32 -75 -83 -103 -35 -18 -59 -22 -139 -22 -107 0 -141 13 -103 41 19 14 35 13 88 -2 13 -4 20 1 24 15 5 18 10 20 49 14 l44 -6 0 62 c0 33 3 61 7 61 3 0 22 -12 41 -27z"/>
    <path d="M3531 4319 c-169 -54 -405 -227 -689 -506 -155 -153 -209 -222 -257 -327 -46 -101 -59 -164 -52 -265 7 -107 35 -190 96 -284 111 -168 282 -272 517 -312 154 -26 308 -35 684 -42 408 -6 482 0 628 57 292 113 461 414 398 711 -39 183 -130 333 -316 520 -223 224 -464 390 -654 448 -93 29 -263 29 -355 0z m270 -119 c244 -46 714 -426 853 -689 122 -232 94 -471 -74 -638 -55 -55 -107 -85 -206 -120 l-79 -28 -410 0 c-664 0 -869 33 -1033 165 -66 53 -137 151 -163 227 -28 81 -27 200 2 279 48 130 202 302 475 530 292 244 444 310 635 274z"/>
    <path d="M3627 4105 c-87 -22 -161 -61 -201 -105 -39 -43 -46 -66 -18 -57 91 30 189 57 207 57 13 0 45 13 72 30 48 29 146 60 192 60 18 0 22 3 14 11 -18 18 -200 21 -266 4z"/>
    <path d="M3263 3874 c-16 -26 -16 -27 6 -45 13 -11 33 -19 45 -19 27 0 66 27 66 45 0 20 -40 45 -72 45 -19 0 -33 -8 -45 -26z"/>
    <path d="M4585 3118 c-60 -111 -176 -193 -390 -277 -85 -34 -88 -41 -18 -41 153 0 309 57 365 134 15 22 37 67 47 100 20 65 34 136 28 136 -2 0 -17 -24 -32 -52z"/>
    <path d="M2302 3903 c-12 -5 -42 -65 -42 -84 0 -13 34 -11 52 4 34 26 26 93 -10 80z"/>
    <path d="M4537 2543 c-13 -12 -7 -51 8 -57 34 -13 86 28 69 55 -6 10 -67 12 -77 2z"/>
  </g>
</svg>