<svg version="1.0" xmlns="http://www.w3.org/2000/svg" width="800.000000" height="800.000000" viewBox="0 0 800.000000 800.000000" preserveAspectRatio="xMidYMid meet">
  <metadata>
    <rdf:RDF xmlns:rdf="http://www.w3.org/1999/02/22-rdf-syntax-ns#" xmlns:rdfs="http://www.w3.org/2000/01/rdf-schema#" xmlns:dc="http://purl.org/dc/elements/1.1/">
      <rdf:Description dc:format="image/svg+xml" dc:Label="1" dc:ContentProducer="001191330110MACRLGPT8B00000" dc:ProduceID="448339195" dc:ReservedCode1="liyZ/mBqyfc2F9CsCjvUqXoIRThU9WJtSZQJnuWxHg8=" dc:ContentPropagator="001191330110MACRLGPT8B00000" dc:PropagateID="448339195" dc:ReservedCode2="liyZ/mBqyfc2F9CsCjvUqXoIRThU9WJtSZQJnuWxHg8="/>
    </rdf:RDF>
  </metadata>
  <g transform="translate(33.826557,813.449949) scale(0.102576,-0.102576)" fill="#000000" stroke="none">
    <path d="M4330 6026 c-222 -47 -422 -190 -534 -382 -56 -96 -80 -190 -74 -290 3 -43 1 -74 -4 -74 -6 0 -46 16 -91 36 -45 20 -176 77 -292 127 l-210 91 -105 0 c-99 1 -109 -1 -170 -32 -92 -47 -99 -54 -667 -589 -196 -184 -221 -239 -163 -353 24 -47 81 -97 139 -122 38 -16 62 -19 141 -16 114 5 141 16 325 136 200 130 190 126 277 126 95 1 111 -10 85 -57 -11 -18 -41 -63 -68 -102 -151 -212 -264 -376 -293 -426 -35 -58 -59 -139 -56 -186 5 -70 14 -55 -284 -439 -264 -338 -303 -389 -423 -555 -195 -268 -320 -460 -333 -509 -25 -95 16 -207 105 -288 84 -77 133 -97 236 -97 l86 0 58 45 c32 25 194 184 359 354 487 501 890 906 901 906 13 0 44 -40 69 -88 14 -27 15 -40 7 -65 -13 -38 -35 -56 -211 -172 -231 -152 -342 -292 -356 -446 -16 -176 128 -311 315 -296 115 8 150 25 631 299 429 245 525 320 597 466 33 66 38 87 42 159 6 143 -51 268 -205 453 -96 115 -108 140 -101 207 6 53 45 139 77 168 15 14 24 10 101 -41 118 -80 273 -160 344 -179 127 -33 259 -15 372 52 120 69 483 361 570 457 86 95 110 190 74 288 -41 106 -145 168 -284 168 -103 0 -184 -23 -327 -90 -131 -62 -181 -73 -227 -47 -40 23 -194 159 -191 169 2 6 29 18 60 28 142 44 285 174 362 332 77 154 90 268 51 424 -51 199 -208 368 -405 434 -82 28 -221 35 -310 16z m162 -145 c17 -7 5 -10 -53 -10 -42 -1 -91 -6 -110 -13 l-34 -12 30 -7 c17 -4 50 -7 74 -8 24 0 42 -3 40 -6 -3 -2 -43 -18 -90 -34 -66 -24 -91 -39 -116 -68 -29 -34 -35 -37 -53 -25 -35 21 -51 14 -116 -54 l-63 -65 15 53 c46 154 117 223 269 262 29 7 179 -2 207 -13z m-1272 -517 c63 -28 205 -86 315 -128 289 -112 392 -165 786 -410 41 -26 134 -98 205 -162 146 -129 221 -174 294 -174 57 0 93 12 232 78 131 63 164 72 255 72 110 0 164 -29 183 -100 15 -55 -4 -105 -63 -168 -111 -117 -469 -397 -576 -449 -46 -23 -69 -28 -131 -27 -112 1 -217 48 -444 200 -116 78 -169 72 -240 -24 -60 -82 -96 -175 -96 -245 0 -82 27 -138 122 -252 135 -163 174 -237 185 -350 11 -118 -49 -223 -184 -322 -65 -48 -315 -200 -453 -275 -36 -20 -105 -59 -155 -87 -268 -154 -373 -186 -465 -142 -64 30 -85 64 -85 131 0 129 84 232 316 385 256 170 297 236 229 371 -58 118 -137 185 -365 313 -172 98 -289 175 -347 231 -44 42 -48 50 -48 93 0 62 19 104 89 202 132 183 290 414 311 455 29 57 31 120 4 157 -55 75 -221 94 -337 40 -33 -15 -126 -72 -208 -127 -81 -54 -165 -104 -186 -109 -58 -17 -123 -13 -167 9 -40 19 -86 73 -86 99 0 29 45 84 133 162 51 45 166 152 257 239 285 270 339 318 393 345 46 23 61 26 132 23 70 -3 94 -10 195 -54z m1599 -144 c-12 -39 -32 -60 -45 -47 -6 5 20 62 39 85 17 21 19 6 6 -38z m-64 -195 c-42 -36 -145 -75 -197 -75 -45 0 -29 10 66 40 47 15 97 37 112 49 46 36 63 24 19 -14z m-1712 -1553 c38 -34 10 -43 -48 -15 -35 17 -46 38 -22 46 14 5 44 -8 70 -31z m-165 4 c2 -3 1 -9 -2 -14 -8 -14 -59 1 -64 18 -4 10 3 11 28 6 19 -3 35 -8 38 -10z m-13 -106 c3 -5 -3 -10 -14 -10 -11 0 -23 5 -26 10 -3 6 3 10 14 10 11 0 23 -4 26 -10z m-1026 -772 c-43 -96 -46 -173 -9 -213 21 -22 31 -26 60 -21 l35 5 -23 -19 c-13 -11 -21 -24 -17 -30 9 -15 63 -12 103 7 35 16 63 35 220 155 35 26 68 48 73 48 28 0 -165 -201 -240 -250 -86 -58 -178 -50 -271 23 -119 94 -117 147 13 286 45 48 83 86 85 85 2 -1 -11 -35 -29 -76z"/>
    <path d="M2935 5326 c-27 -14 -64 -37 -81 -53 -40 -35 -127 -144 -121 -150 3 -2 23 5 45 16 58 30 131 44 148 30 11 -9 18 -8 29 1 23 19 148 25 227 10 38 -6 71 -10 74 -8 2 3 -16 16 -41 29 -25 13 -45 28 -45 32 0 4 23 5 50 1 60 -8 65 4 17 40 -52 40 -121 66 -189 72 -54 4 -71 1 -113 -20z"/>
    <path d="M2374 4822 c-80 -45 -204 -133 -216 -155 -14 -27 18 -68 68 -85 84 -29 161 0 323 122 53 39 109 80 124 90 69 43 -11 26 -171 -37 -123 -48 -137 -43 -93 32 44 74 42 75 -35 33z"/>
    <path d="M5224 4554 c-111 -59 -121 -78 -35 -68 52 6 60 4 80 -17 22 -23 30 -89 11 -89 -5 0 -10 7 -10 16 0 9 -7 14 -16 12 -22 -4 -20 -21 3 -33 16 -8 18 -15 12 -33 l-9 -23 28 20 c33 23 103 96 126 131 9 13 16 39 16 57 0 72 -96 85 -206 27z"/>
    <path d="M3009 4293 c-69 -72 -209 -241 -225 -271 -19 -37 -17 -91 5 -132 21 -40 103 -100 135 -100 20 1 20 2 4 14 -27 20 -22 26 20 26 38 0 86 25 77 39 -2 5 -18 11 -34 14 -17 4 -46 22 -65 41 -31 29 -36 41 -36 79 0 66 23 121 100 235 38 56 68 102 67 102 -2 0 -23 -21 -48 -47z"/>
    <path d="M4948 4100 c-110 -74 -230 -102 -325 -77 -29 8 -53 11 -53 7 0 -12 70 -70 97 -81 39 -15 115 -10 158 10 48 21 143 106 168 150 10 17 17 31 15 31 -2 0 -29 -18 -60 -40z"/>
    <path d="M4038 3319 c6 -130 -7 -173 -59 -200 -38 -19 -40 -22 -25 -38 22 -24 21 -28 -22 -55 -61 -38 -316 -265 -308 -274 5 -5 244 115 336 168 132 77 220 178 220 252 0 49 -36 118 -98 187 l-48 53 4 -93z"/>
    <path d="M3073 2705 c-86 -66 -114 -103 -121 -161 -6 -54 12 -84 64 -109 76 -36 193 10 314 124 l65 61 -65 -29 c-36 -16 -85 -40 -110 -55 -59 -34 -130 -34 -130 -1 0 17 23 25 71 25 41 0 79 14 79 29 0 5 -19 11 -42 14 -61 9 -98 28 -98 52 0 11 11 39 25 63 13 23 23 42 22 42 -1 0 -34 -25 -74 -55z"/>
  </g>
</svg>