<svg version="1.0" xmlns="http://www.w3.org/2000/svg" width="800.000000" height="800.000000" viewBox="0 0 800.000000 800.000000" preserveAspectRatio="xMidYMid meet">
  <metadata>
    <rdf:RDF xmlns:rdf="http://www.w3.org/1999/02/22-rdf-syntax-ns#" xmlns:rdfs="http://www.w3.org/2000/01/rdf-schema#" xmlns:dc="http://purl.org/dc/elements/1.1/">
      <rdf:Description dc:format="image/svg+xml" dc:Label="1" dc:ContentProducer="001191330110MACRLGPT8B00000" dc:ProduceID="448339197" dc:ReservedCode1="dWBUlAFDbo41Onf170hkPGifNNX1BVcK7nWO5nOU1z0=" dc:ContentPropagator="001191330110MACRLGPT8B00000" dc:PropagateID="448339197" dc:ReservedCode2="dWBUlAFDbo41Onf170hkPGifNNX1BVcK7nWO5nOU1z0="/>
    </rdf:RDF>
  </metadata>
  <g transform="translate(-36.684312,812.959966) scale(0.108157,-0.108157)" fill="#000000" stroke="none">
    <path d="M4905 5514 c-381 -28 -488 -73 -730 -305 -62 -60 -120 -109 -128 -109 -14 0 -115 82 -237 194 -82 74 -195 143 -285 173 l-80 27 -382 4 c-438 4 -504 -3 -630 -62 -98 -47 -198 -142 -247 -235 -81 -155 -91 -272 -90 -1061 1 -669 16 -1186 38 -1290 42 -196 158 -315 351 -362 22 -5 243 -13 490 -17 428 -7 453 -9 520 -30 102 -33 188 -87 311 -197 108 -96 152 -124 197 -124 44 0 127 52 219 137 142 130 220 179 328 205 29 7 217 12 530 13 421 1 493 4 543 18 172 50 287 174 322 346 18 86 38 1214 33 1826 -3 427 -4 442 -25 494 -37 90 -87 156 -157 205 -91 66 -220 124 -302 136 -70 11 -498 21 -589 14z m-1470 -155 c99 -22 184 -72 330 -199 188 -162 216 -180 277 -180 68 0 98 18 218 134 119 115 184 165 262 201 96 44 275 71 280 43 1 -7 3 -238 3 -513 0 -523 4 -574 45 -656 34 -66 77 -66 189 0 96 57 162 76 232 68 47 -6 73 -20 203 -112 26 -19 60 -35 75 -35 35 0 66 34 79 85 6 24 10 250 10 568 0 290 2 530 5 533 15 16 128 -72 161 -125 50 -80 49 -66 42 -1059 -7 -961 -15 -1241 -38 -1304 -35 -97 -124 -177 -219 -197 -31 -7 -229 -11 -528 -11 -444 0 -483 -1 -555 -20 -116 -29 -200 -80 -337 -203 -67 -59 -131 -112 -143 -117 -29 -11 -46 0 -163 105 -117 104 -233 171 -358 206 -75 20 -109 22 -535 29 -256 4 -468 12 -485 17 -118 39 -189 115 -224 238 -29 101 -58 1278 -42 1704 17 445 27 508 99 619 54 83 139 143 242 173 88 25 766 31 875 8z m1609 -71 c20 -28 20 -94 1 -128 l-13 -25 -12 30 c-7 17 -15 49 -17 72 -9 70 11 94 41 51z m104 -1 c5 -27 -27 -60 -45 -46 -16 14 -17 56 0 62 22 10 42 2 45 -16z m-263 -807 c4 -22 11 -40 16 -40 5 0 9 -7 9 -15 0 -8 4 -15 9 -15 6 0 3 -12 -5 -27 -7 -16 -14 -34 -14 -40 0 -27 -18 -11 -23 20 -15 82 -19 157 -9 157 6 0 13 -18 17 -40z"/>
    <path d="M2573 5245 c-18 -8 -33 -21 -33 -29 0 -27 39 -39 111 -34 99 7 128 37 64 64 -43 18 -100 17 -142 -1z"/>
    <path d="M4603 5249 c-26 -9 -47 -45 -39 -65 3 -8 18 -14 34 -14 16 0 37 -9 47 -20 10 -11 22 -20 27 -20 13 0 9 59 -7 89 -17 34 -32 41 -62 30z"/>
    <path d="M2423 5134 c-18 -9 -33 -20 -33 -24 0 -4 41 -11 91 -15 51 -4 98 -9 105 -12 9 -3 14 2 14 15 0 44 -113 67 -177 36z"/>
    <path d="M2371 5039 c-23 -25 -37 -77 -24 -90 10 -10 53 12 104 53 33 27 33 28 14 42 -29 22 -71 19 -94 -5z"/>
    <path d="M3215 4798 c-17 -13 -50 -69 -86 -144 -115 -245 -232 -361 -497 -493 -184 -93 -179 -144 28 -250 254 -131 359 -235 475 -473 56 -114 90 -152 140 -152 50 0 86 39 142 153 64 131 105 194 171 264 79 82 157 135 313 211 174 86 200 115 165 185 -15 28 -39 42 -208 120 -197 90 -340 240 -453 474 -21 43 -51 89 -67 102 -37 31 -86 33 -123 3z m76 -201 c5 -30 3 -37 -11 -37 -9 0 -21 -5 -28 -12 -9 -9 -15 -8 -27 8 -17 22 -18 34 -6 53 8 12 12 12 25 2 14 -12 16 -10 16 9 0 35 24 17 31 -23z m-105 -53 c-3 -9 -6 -20 -6 -25 0 -5 -7 -9 -15 -9 -18 0 -18 5 -5 31 13 23 35 26 26 3z m-207 -241 c-32 -43 -76 -86 -101 -99 -29 -15 -38 -48 -15 -57 8 -4 4 -12 -13 -27 -36 -30 -64 -40 -157 -55 -45 -8 -92 -19 -103 -25 -41 -22 -69 12 -35 40 9 7 51 28 94 45 78 32 234 120 300 170 40 29 48 32 30 8z m-118 -329 c44 -42 64 -72 55 -81 -3 -4 -14 1 -23 9 -10 9 -53 34 -95 58 -101 54 -106 64 -34 58 49 -4 62 -10 97 -44z"/>
    <path d="M4044 3556 c-11 -8 -33 -34 -49 -58 -84 -124 -144 -184 -239 -240 -45 -27 -54 -45 -40 -83 4 -9 47 -36 95 -61 109 -54 152 -92 204 -178 59 -98 105 -100 121 -7 18 111 67 165 194 215 56 22 90 53 90 81 0 16 -18 31 -80 64 -102 54 -166 117 -210 206 -37 74 -52 85 -86 61z m-71 -243 c-3 -10 -16 -32 -29 -49 -13 -17 -20 -34 -17 -38 4 -3 -3 -6 -14 -6 -32 0 -33 -10 -5 -37 21 -20 23 -23 7 -17 -11 4 -41 15 -68 24 -26 9 -50 20 -53 23 -3 3 28 22 70 42 42 20 80 45 86 55 13 25 32 26 23 3z"/>
    <path d="M5713 2948 c-11 -13 -28 -38 -37 -56 -12 -23 -32 -39 -64 -53 -48 -21 -82 -46 -82 -60 0 -4 8 -10 18 -12 16 -4 16 -5 -1 -6 -10 0 -16 -5 -13 -10 3 -5 -7 -14 -22 -20 -36 -15 -159 -41 -195 -41 -16 0 -26 -4 -22 -10 9 -14 264 -13 306 2 91 31 152 117 150 215 0 68 -10 81 -38 51z"/>
    <path d="M2376 2824 c-12 -31 -6 -63 17 -87 29 -31 53 -43 106 -51 48 -7 191 3 191 14 0 3 -28 12 -62 18 -35 6 -79 23 -102 39 -23 15 -54 28 -71 28 -25 0 -30 4 -33 28 -4 30 -35 38 -46 11z"/>
    <path d="M4103 2450 c-13 -5 -23 -16 -23 -24 0 -9 -17 -20 -41 -27 -44 -14 -59 -33 -40 -52 14 -14 62 8 119 58 33 28 40 40 30 46 -16 10 -17 10 -45 -1z"/>
  </g>
</svg>