<svg version="1.0" xmlns="http://www.w3.org/2000/svg" width="800.000000" height="800.000000" viewBox="0 0 800.000000 800.000000" preserveAspectRatio="xMidYMid meet">
  <metadata>
    <rdf:RDF xmlns:rdf="http://www.w3.org/1999/02/22-rdf-syntax-ns#" xmlns:rdfs="http://www.w3.org/2000/01/rdf-schema#" xmlns:dc="http://purl.org/dc/elements/1.1/">
      <rdf:Description dc:format="image/svg+xml" dc:Label="1" dc:ContentProducer="001191330110MACRLGPT8B00000" dc:ProduceID="448333564" dc:ReservedCode1="P4UENZaAbfEjuzJN3DdAk4xl152CXsvTGqQmS5+QvSY=" dc:ContentPropagator="001191330110MACRLGPT8B00000" dc:PropagateID="448333564" dc:ReservedCode2="P4UENZaAbfEjuzJN3DdAk4xl152CXsvTGqQmS5+QvSY="/>
    </rdf:RDF>
  </metadata>
  <g transform="translate(-9.510146,850.267747) scale(0.104238,-0.104238)" fill="#000000" stroke="none">
    <path d="M2764 6295 c-10 -54 10 -184 37 -237 35 -70 90 -141 101 -130 6 6 9 46 7 90 -4 73 -9 89 -52 174 -26 51 -56 104 -67 118 l-18 24 -8 -39z"/>
    <path d="M3082 6238 c-29 -36 -55 -126 -56 -200 0 -42 3 -80 7 -85 15 -14 56 45 73 103 11 39 14 72 9 113 -8 69 -17 88 -33 69z"/>
    <path d="M3854 6226 c-44 -19 -71 -58 -78 -113 -9 -63 -24 -100 -44 -108 -10 -4 -84 -31 -167 -62 -206 -76 -301 -122 -419 -200 -122 -81 -279 -235 -354 -348 -186 -280 -308 -741 -258 -974 9 -41 15 -75 13 -76 -1 0 -20 -7 -42 -14 -237 -79 -385 -267 -385 -489 0 -160 120 -376 267 -479 139 -98 223 -112 826 -139 108 -5 127 -8 127 -22 0 -9 -18 -79 -40 -157 -95 -335 -116 -509 -73 -590 32 -59 70 -94 132 -124 l56 -26 534 3 c580 3 574 3 634 60 103 97 99 197 -29 670 -24 90 -44 167 -44 172 0 4 78 11 173 14 468 18 616 38 747 103 216 106 347 382 297 625 -41 195 -170 329 -375 391 -57 16 -71 24 -66 37 3 8 11 43 17 78 20 115 -32 419 -109 634 -79 219 -221 427 -386 566 -173 145 -279 202 -537 290 -90 30 -174 64 -188 76 -15 13 -30 44 -39 81 -17 67 -43 101 -91 121 -40 17 -59 17 -99 0z m-297 -482 c-27 -8 -56 -13 -65 -11 -10 2 3 8 28 14 67 16 92 14 37 -3z m-107 -84 c30 -11 51 -19 47 -20 -27 -1 -164 -33 -171 -40 -5 -5 7 -19 30 -32 l39 -23 -65 -6 c-82 -7 -110 -16 -104 -33 3 -7 -2 -16 -11 -20 -10 -3 -15 -12 -11 -21 3 -10 -1 -15 -12 -15 -22 0 -158 -65 -197 -94 -54 -40 -58 -40 -28 5 107 154 314 319 403 318 14 0 50 -8 80 -19z m1415 -264 c38 -37 65 -80 65 -100 0 -17 -2 -18 -10 -6 -7 10 -10 -8 -11 -60 l0 -75 -24 83 c-13 46 -30 98 -38 115 -8 18 -20 50 -25 72 -11 39 -11 40 6 15 9 -13 26 -33 37 -44z m190 -1116 c311 -29 450 -99 530 -265 23 -49 30 -77 33 -150 4 -79 1 -100 -23 -170 -67 -195 -160 -273 -372 -316 -181 -36 -376 -43 -1278 -42 -1279 1 -1392 14 -1558 177 -38 38 -69 82 -99 142 -42 86 -43 90 -43 188 0 90 3 108 28 162 52 112 150 185 301 224 110 28 226 38 586 50 179 6 359 12 400 14 180 8 1384 -3 1495 -14z m-1059 -1070 l391 0 38 -137 c69 -250 76 -277 95 -372 35 -164 25 -221 -44 -255 -37 -18 -69 -19 -550 -20 -498 -1 -512 0 -546 20 -46 26 -60 56 -60 126 0 148 112 569 168 632 14 15 26 17 67 12 28 -3 226 -6 441 -6z"/>
    <path d="M2705 4194 c-105 -21 -137 -30 -182 -50 -66 -29 -142 -99 -173 -161 -21 -40 -25 -62 -25 -133 0 -74 4 -93 31 -150 17 -36 51 -84 75 -108 86 -85 223 -140 324 -129 37 3 38 5 15 12 -45 15 -169 82 -202 110 -116 95 -139 185 -73 275 14 18 23 35 21 38 -7 7 -50 -20 -68 -42 -24 -30 -29 -17 -14 39 24 94 69 164 127 201 53 33 203 71 319 80 83 7 90 9 55 15 -41 8 -194 10 -230 3z"/>
    <path d="M5319 4095 c44 -58 81 -140 81 -182 0 -22 -29 -27 -50 -8 -31 28 -24 2 25 -93 33 -64 43 -94 39 -114 -7 -31 -38 -45 -60 -27 -8 6 -16 10 -18 8 -1 -2 -12 -20 -24 -40 -29 -48 -99 -112 -152 -139 -45 -23 -235 -70 -284 -70 -58 0 -16 -11 80 -21 116 -12 246 1 331 32 76 29 173 126 216 217 28 59 32 78 32 152 0 74 -4 93 -31 150 -17 36 -49 83 -72 104 -43 41 -128 96 -150 96 -7 0 10 -29 37 -65z"/>
    <path d="M2826 3969 c-119 -28 -172 -156 -105 -254 44 -65 152 -95 218 -61 42 22 89 81 97 121 22 120 -88 221 -210 194z"/>
    <path d="M3834 3961 c-41 -25 -82 -80 -90 -119 -17 -84 47 -179 139 -208 72 -22 124 -8 184 53 44 44 45 46 41 97 -9 112 -81 187 -185 193 -45 3 -65 0 -89 -16z"/>
    <path d="M4883 3960 c-42 -28 -73 -83 -80 -139 -10 -92 73 -181 166 -181 93 1 181 83 181 169 0 55 -24 97 -75 137 -51 38 -144 45 -192 14z"/>
    <path d="M3514 3126 c-86 -38 -86 -122 1 -221 l26 -30 -7 35 c-11 63 -10 65 48 105 42 28 48 35 30 35 -12 0 -25 -7 -28 -15 -4 -8 -17 -15 -30 -15 l-24 0 30 55 c17 31 30 58 30 60 0 10 -46 4 -76 -9z"/>
    <path d="M4294 3085 c-4 -25 0 -49 14 -84 12 -26 24 -67 28 -90 8 -49 19 -53 28 -10 16 82 4 157 -31 198 -24 29 -31 26 -39 -14z"/>
    <path d="M3424 2764 c-3 -10 -17 -47 -30 -81 -42 -109 -28 -157 55 -184 20 -6 42 -17 50 -23 19 -15 319 -15 345 0 14 9 -5 12 -91 16 -82 4 -118 10 -149 26 -49 25 -68 47 -60 67 7 19 -13 19 -41 0 -33 -23 -47 4 -51 99 -4 82 -16 116 -28 80z m46 -229 c10 -12 10 -15 -3 -15 -23 0 -47 11 -47 21 0 15 37 10 50 -6z"/>
    <path d="M4370 2740 c-12 -8 -11 -10 6 -10 45 0 57 -57 21 -97 -25 -28 -12 -29 31 -3 42 26 46 38 27 83 -12 30 -20 37 -43 37 -15 0 -34 -5 -42 -10z"/>
    <path d="M4450 2580 c0 -24 -26 -38 -42 -22 -7 7 -18 7 -36 -1 -21 -10 -27 -9 -35 4 -9 15 -15 14 -56 -7 -25 -13 -75 -30 -111 -37 -58 -12 -62 -14 -35 -20 66 -14 241 -28 275 -22 64 12 95 59 70 106 -14 25 -30 24 -30 -1z"/>
    <path d="M2450 6014 c22 -28 69 -66 109 -91 48 -28 220 -97 227 -90 3 3 -3 25 -14 49 -32 73 -139 129 -275 144 -60 7 -61 6 -47 -12z"/>
  </g>
</svg>