<svg version="1.0" xmlns="http://www.w3.org/2000/svg" width="800.000000" height="800.000000" viewBox="0 0 800.000000 800.000000" preserveAspectRatio="xMidYMid meet">
  <metadata>
    <rdf:RDF xmlns:rdf="http://www.w3.org/1999/02/22-rdf-syntax-ns#" xmlns:rdfs="http://www.w3.org/2000/01/rdf-schema#" xmlns:dc="http://purl.org/dc/elements/1.1/">
      <rdf:Description dc:format="image/svg+xml" dc:Label="1" dc:ContentProducer="001191330110MACRLGPT8B00000" dc:ProduceID="448343512" dc:ReservedCode1="HosDW9+G5b2DXSLSdftL74bEswcWJU1egQ9uAPSqPk0=" dc:ContentPropagator="001191330110MACRLGPT8B00000" dc:PropagateID="448343512" dc:ReservedCode2="HosDW9+G5b2DXSLSdftL74bEswcWJU1egQ9uAPSqPk0="/>
    </rdf:RDF>
  </metadata>
  <g transform="translate(65.600622,778.700017) scale(0.087362,-0.087362)" fill="#000000" stroke="none">
    <path d="M3595 6733 c-224 -19 -478 -69 -580 -114 -189 -83 -310 -239 -366 -469 -22 -88 -23 -117 -24 -376 l0 -281 -100 -16 c-116 -18 -182 -44 -243 -94 -121 -99 -159 -216 -182 -552 -31 -477 -31 -1179 0 -1731 26 -451 54 -557 179 -680 76 -74 166 -116 274 -127 34 -3 68 -9 76 -13 7 -4 24 -38 37 -76 41 -115 112 -202 201 -245 61 -30 182 -37 235 -15 73 31 137 116 188 248 l27 73 521 3 520 2 6 -27 c15 -59 87 -190 127 -231 69 -70 107 -85 208 -80 101 5 148 25 223 96 61 57 96 116 118 196 l17 61 84 17 c136 29 202 70 287 177 51 64 75 130 95 256 63 395 76 1802 21 2254 -15 131 -48 247 -88 309 -31 49 -113 125 -163 150 -54 28 -150 52 -242 60 l-76 7 2 55 c9 342 7 489 -10 574 -52 255 -147 411 -297 484 -82 40 -249 78 -427 97 -124 13 -528 18 -648 8z m878 -153 c147 -22 245 -104 262 -222 9 -57 -5 -63 -24 -11 -8 20 -34 57 -58 81 -68 66 -113 84 -388 150 -35 9 -30 10 50 11 50 0 121 -4 158 -9z m-1312 -191 c14 -26 0 -42 -32 -37 -18 2 -25 10 -27 31 -3 23 0 27 22 27 15 0 30 -8 37 -21z m-191 -59 c0 -23 -4 -30 -20 -30 -23 0 -35 22 -26 45 3 8 15 15 26 15 16 0 20 -7 20 -30z m100 16 c0 -2 3 -11 6 -20 4 -11 0 -16 -14 -16 -23 0 -36 15 -27 30 6 10 35 14 35 6z m380 -63 c47 4 78 4 70 0 -8 -3 -36 -16 -62 -29 -69 -33 -113 -40 -143 -20 -15 10 -25 26 -25 40 0 23 2 24 38 14 21 -6 74 -8 122 -5z m-510 -33 c14 -26 -4 -63 -28 -58 -18 3 -28 39 -18 64 8 20 34 17 46 -6z m1055 -89 c165 -6 277 -14 305 -22 57 -17 112 -72 129 -129 15 -50 18 -382 3 -435 l-8 -29 -475 -2 c-261 -1 -536 -5 -611 -9 l-136 -8 -7 48 c-12 80 1 343 20 405 33 107 90 162 185 181 49 10 291 9 595 0z m965 -775 c195 -20 272 -42 333 -96 121 -107 144 -273 154 -1085 6 -512 -5 -939 -33 -1253 -27 -319 -59 -404 -177 -479 -114 -72 -179 -75 -1492 -71 -1241 5 -1202 3 -1317 65 -61 33 -120 104 -142 170 -33 101 -52 308 -71 763 -17 419 -19 704 -5 1051 23 586 48 738 137 821 78 73 154 87 593 113 397 22 380 22 1155 20 570 -2 740 -6 865 -19z m-2080 -3251 c24 -39 35 -43 49 -18 11 21 26 10 26 -20 0 -18 6 -22 30 -22 17 -1 39 -4 50 -9 11 -4 27 -10 35 -12 24 -8 -8 -22 -65 -29 -60 -8 -125 16 -169 64 -26 27 -28 34 -18 56 16 35 36 31 62 -10z m1706 -81 c44 -17 144 -16 187 1 9 4 17 3 17 -2 0 -15 -91 -43 -137 -43 -57 0 -119 26 -143 60 -29 40 -25 57 6 27 14 -14 46 -34 70 -43z"/>
    <path d="M2647 5229 c-88 -21 -180 -98 -227 -190 -21 -40 -38 -162 -40 -279 l0 -34 39 38 c23 23 54 70 73 112 l33 74 79 0 c67 0 77 2 72 16 -16 41 -17 67 -6 94 16 39 116 106 189 126 31 8 65 19 76 23 59 24 -196 42 -288 20z"/>
    <path d="M5040 5198 c0 -13 40 -91 58 -110 32 -38 92 -9 92 44 0 14 -9 33 -19 42 -20 19 -131 39 -131 24z"/>
    <path d="M5196 5014 c-20 -20 -20 -29 0 -49 23 -23 58 -15 62 13 7 44 -32 67 -62 36z"/>
    <path d="M5130 4937 c0 -7 6 -21 13 -32 19 -25 32 -3 15 25 -15 23 -28 26 -28 7z"/>
    <path d="M3199 4706 c-53 -14 -94 -41 -138 -91 -83 -95 -90 -149 -90 -655 0 -428 5 -512 39 -603 22 -60 95 -148 140 -172 42 -22 123 -29 179 -15 67 16 124 59 165 123 67 106 68 109 77 570 4 229 11 421 14 427 3 5 1 49 -5 97 -14 114 -53 196 -121 257 -77 69 -160 89 -260 62z m84 -140 c18 -7 40 -22 50 -33 17 -19 16 -19 -38 -10 -42 8 -59 7 -68 -2 -12 -13 -7 -18 47 -55 17 -11 10 -12 -43 -8 -54 4 -65 2 -86 -18 -14 -13 -28 -20 -32 -17 -12 12 21 92 50 119 24 23 37 29 80 37 4 0 22 -5 40 -13z m-112 -1146 c29 -36 39 -42 60 -37 13 3 31 18 40 33 l16 27 14 -29 c20 -41 47 -41 97 1 35 30 42 33 42 18 0 -39 -45 -108 -85 -130 -55 -31 -130 -31 -176 0 -44 28 -89 117 -89 171 l1 41 22 -26 c12 -14 38 -45 58 -69z"/>
    <path d="M4288 4700 c-49 -15 -118 -71 -154 -125 -68 -102 -68 -99 -72 -620 -4 -506 -1 -540 46 -629 94 -174 303 -210 441 -76 57 56 90 118 106 205 18 94 22 870 4 957 -14 75 -66 176 -114 224 -63 63 -171 90 -257 64z m106 -125 c17 -8 36 -23 43 -34 11 -17 9 -17 -25 -5 -20 7 -48 13 -61 14 -22 0 -23 -3 -18 -36 6 -38 3 -39 -45 -19 -12 5 -26 -3 -48 -26 -25 -28 -30 -30 -30 -14 0 35 44 99 80 117 43 22 63 22 104 3z m173 -917 c-9 -163 -23 -219 -65 -269 -79 -92 -199 -93 -268 -2 -21 28 -27 48 -30 101 l-4 67 15 -60 c17 -63 50 -109 75 -102 9 2 21 -2 28 -10 20 -20 32 -16 46 19 13 31 14 31 25 10 16 -29 32 -28 63 6 33 35 55 78 63 127 4 22 13 65 20 95 7 30 16 72 19 93 13 72 19 36 13 -75z"/>
    <path d="M2407 3263 c-14 -23 -29 -231 -23 -321 16 -236 69 -347 191 -398 64 -26 679 -9 833 24 35 8 34 9 -33 16 -38 4 -104 14 -145 22 -41 8 -149 23 -240 34 -230 29 -300 51 -300 94 0 10 -7 24 -16 31 -15 11 -15 15 -2 41 8 16 23 42 33 58 l19 29 -29 -7 c-96 -21 -100 -21 -132 20 -42 54 -71 120 -113 253 -20 63 -39 110 -43 104z"/>
    <path d="M5214 2934 l-48 -106 -71 4 c-38 3 -78 8 -87 12 -13 6 -11 -7 13 -69 17 -43 28 -83 25 -90 -2 -7 -51 -31 -108 -53 -134 -53 -215 -89 -222 -100 -13 -22 192 -29 303 -12 83 14 129 39 179 95 43 49 76 131 86 217 6 55 -4 208 -14 208 -4 0 -29 -48 -56 -106z"/>
  </g>
</svg>