<svg version="1.0" xmlns="http://www.w3.org/2000/svg" width="800.000000" height="800.000000" viewBox="0 0 800.000000 800.000000" preserveAspectRatio="xMidYMid meet">
  <metadata>
    <rdf:RDF xmlns:rdf="http://www.w3.org/1999/02/22-rdf-syntax-ns#" xmlns:rdfs="http://www.w3.org/2000/01/rdf-schema#" xmlns:dc="http://purl.org/dc/elements/1.1/">
      <rdf:Description dc:format="image/svg+xml" dc:Label="1" dc:ContentProducer="001191330110MACRLGPT8B00000" dc:ProduceID="448333135" dc:ReservedCode1="SKvwCNitSpDsBLIemUOVmNKOGUP9ZEumJdeKA1TIX34=" dc:ContentPropagator="001191330110MACRLGPT8B00000" dc:PropagateID="448333135" dc:ReservedCode2="SKvwCNitSpDsBLIemUOVmNKOGUP9ZEumJdeKA1TIX34="/>
    </rdf:RDF>
  </metadata>
  <g transform="translate(-127.504143,879.076275) scale(0.134178,-0.134178)" fill="#000000" stroke="none">
    <path d="M3320 5119 c-398 -12 -702 -27 -736 -37 -110 -34 -163 -103 -201 -263 -15 -66 -17 -136 -17 -629 1 -594 10 -766 44 -844 47 -110 118 -161 243 -174 39 -4 527 -7 1082 -6 1103 1 1066 -1 1189 59 116 58 156 137 156 314 0 111 7 138 34 128 22 -9 42 -63 57 -151 17 -99 4 -145 -60 -206 -54 -53 -239 -163 -436 -260 -177 -87 -213 -100 -305 -107 -71 -5 -77 -4 -105 21 -37 33 -116 71 -178 87 -30 7 -88 10 -155 7 -250 -12 -383 -119 -443 -358 -18 -69 -21 -105 -17 -219 3 -128 5 -140 35 -204 39 -82 125 -173 201 -211 107 -54 366 -71 483 -31 62 21 139 92 176 162 17 32 40 101 52 153 29 128 29 128 54 152 26 24 71 45 317 148 365 152 490 217 544 281 68 80 124 242 145 414 27 231 22 679 -10 887 -32 207 -113 277 -307 266 l-77 -4 0 185 c0 227 -9 271 -71 340 -59 66 -122 91 -249 102 -120 10 -1087 9 -1445 -2z m1429 -119 c117 -11 166 -40 194 -116 17 -45 17 -88 10 -760 -8 -701 -8 -713 -29 -741 -11 -15 -39 -38 -60 -50 -83 -46 -124 -48 -1194 -48 -939 0 -1008 1 -1051 18 -54 20 -82 48 -98 97 -33 97 -40 1286 -9 1411 21 81 51 124 101 144 64 26 263 36 912 44 890 11 1122 11 1224 1z m446 -649 l40 -19 -30 -2 c-16 -1 -39 -5 -49 -9 -19 -7 -19 -8 2 -13 12 -4 22 -14 22 -23 0 -16 -2 -16 -25 -1 -16 10 -34 14 -50 10 -21 -5 -25 -3 -25 15 0 59 44 75 115 42z m75 -1291 c0 -22 -52 -85 -84 -102 -15 -8 -13 -2 10 23 18 19 39 49 48 67 19 37 26 40 26 12z m-1235 -129 c14 -6 2 -10 -41 -14 -69 -7 -194 -44 -194 -57 0 -5 7 -16 16 -24 14 -15 11 -16 -35 -16 -41 0 -57 -6 -95 -35 -45 -34 -63 -33 -51 5 10 32 89 94 145 114 80 29 214 43 255 27z m565 -65 c-14 -7 -36 -16 -50 -20 -14 -3 -7 3 15 13 45 22 73 27 35 7z m65 -142 c-98 -50 -155 -83 -188 -111 -37 -30 -43 -29 -50 5 -8 41 -15 37 183 107 123 44 143 43 55 -1z m-415 -391 c-6 -37 -18 -79 -26 -95 -34 -66 -146 -96 -310 -83 -54 5 -91 10 -81 12 20 5 22 19 4 30 -8 4 -17 17 -22 28 -8 20 -17 75 -12 75 1 0 29 -14 61 -30 60 -30 82 -35 124 -24 14 4 21 12 18 20 -4 11 9 14 63 14 88 0 126 23 161 99 30 64 37 48 20 -46z"/>
    <path d="M3425 4938 c-292 -9 -422 -26 -517 -70 -80 -37 -118 -74 -155 -153 l-28 -60 1 -435 c1 -561 12 -636 111 -735 21 -21 63 -50 93 -64 54 -25 60 -26 400 -35 190 -5 516 -9 725 -10 344 -1 384 1 427 17 55 21 112 80 129 134 28 87 19 1125 -10 1224 -15 50 -50 99 -89 125 -45 31 -124 42 -382 53 -342 16 -434 17 -705 9z m-37 -125 c18 -3 31 -7 29 -10 -2 -2 -63 -12 -135 -23 -133 -20 -269 -59 -287 -84 -5 -7 -27 -16 -48 -20 -20 -4 -53 -21 -72 -38 -31 -27 -35 -28 -35 -11 0 31 54 97 102 125 112 66 282 89 446 61z m1049 -31 c41 -21 82 -67 70 -78 -3 -3 -14 -1 -25 5 -12 6 -43 11 -71 11 -39 0 -49 3 -45 14 7 19 -26 26 -146 27 -58 0 -98 3 -90 6 67 26 68 26 20 34 -27 4 14 6 100 5 128 -2 150 -5 187 -24z m-828 -313 c12 -16 73 -63 136 -104 171 -113 246 -188 244 -242 0 -12 -51 -53 -147 -118 -80 -55 -182 -128 -226 -162 -44 -35 -82 -63 -86 -63 -4 0 -15 9 -26 21 -18 20 -19 40 -19 298 0 152 4 293 8 313 9 43 59 101 80 93 7 -3 24 -19 36 -36z m906 -764 c40 -104 -25 -188 -166 -215 -47 -9 -195 -3 -185 7 3 3 36 11 74 18 85 17 127 34 171 71 38 31 70 95 71 137 0 40 16 33 35 -18z m-1370 -144 c15 -6 12 -9 -20 -14 -45 -7 -88 1 -79 14 6 11 71 11 99 0z"/>
    <path d="M3536 4378 c-9 -37 -7 -73 7 -91 11 -16 14 -15 39 8 17 15 39 25 58 25 16 0 30 4 30 8 0 7 -112 72 -124 72 -2 0 -6 -10 -10 -22z"/>
    <path d="M3805 4079 c-22 -5 -75 -6 -117 -3 -43 3 -78 3 -78 0 0 -4 9 -20 21 -35 26 -36 22 -58 -16 -79 -16 -9 -32 -18 -34 -19 -2 -2 2 -9 9 -18 27 -32 51 -22 214 92 98 68 99 83 1 62z"/>
    <path d="M4763 4923 c-7 -2 -13 -15 -13 -28 0 -17 9 -27 38 -38 35 -14 38 -14 46 4 6 12 4 26 -8 44 -16 24 -36 30 -63 18z"/>
    <path d="M2629 4893 c-24 -6 -49 -57 -49 -102 0 -23 10 -62 22 -88 18 -39 23 -43 29 -27 4 10 8 40 8 65 1 49 25 89 55 89 24 0 20 36 -6 54 -23 16 -30 17 -59 9z"/>
    <path d="M4684 4856 c-9 -24 4 -48 23 -44 12 2 18 12 18 28 0 29 -32 41 -41 16z"/>
    <path d="M4830 3643 c0 -21 -7 -51 -15 -67 -8 -15 -15 -35 -15 -44 0 -9 -12 -28 -27 -44 l-27 -28 22 -23 c29 -30 21 -51 -26 -70 l-37 -15 38 -1 c112 -3 170 84 147 217 -17 98 -60 152 -60 75z"/>
  </g>
</svg>